<svg width="24" height="24" viewBox="0 0 24 24" fill="none" xmlns="http://www.w3.org/2000/svg">
<path fill-rule="evenodd" clip-rule="evenodd" d="M5.3935 2.501C6.8245 2.378 9.0265 2.25 12 2.25C12.3235 2.25 12.822 2.2515 13.2685 2.2545C13.635 2.2565 13.963 2.323 14.2385 2.453C15.4815 3.0405 16.632 3.8955 17.6205 4.888C18.6155 5.8865 19.523 7.0655 20.07 8.309C20.1727 8.544 20.2263 8.825 20.231 9.152C20.243 10.0235 20.25 11.1265 20.25 12C20.25 15.872 20.1135 18.4985 19.987 20.1005C19.9265 20.8655 19.3595 21.4345 18.607 21.499C17.1755 21.622 14.9735 21.75 12 21.75C9.0265 21.75 6.8245 21.622 5.3935 21.499C4.6405 21.4345 4.0735 20.8655 4.0135 20.1005C3.886 18.4985 3.75 15.872 3.75 12C3.75 8.128 3.8865 5.5015 4.013 3.8995C4.0735 3.1345 4.641 2.5655 5.3935 2.501ZM12 0.25C8.969 0.25 6.71 0.38 5.222 0.508C3.4875 0.657 2.1565 2.009 2.0195 3.742C1.8885 5.402 1.75 8.082 1.75 12C1.75 15.9185 1.8885 18.598 2.0195 20.258C2.1565 21.991 3.4875 23.343 5.222 23.492C6.71 23.6195 8.969 23.75 12 23.75C15.031 23.75 17.29 23.62 18.778 23.492C20.5125 23.3425 21.8435 21.991 21.9805 20.258C22.1115 18.598 22.25 15.918 22.25 12C22.25 11.118 22.243 10.006 22.2305 9.124C22.2235 8.605 22.138 8.044 21.9005 7.504C21.223 5.9635 20.1415 4.5845 19.0375 3.476C17.9125 2.347 16.5765 1.346 15.0925 0.645C14.501 0.365 13.874 0.258 13.2815 0.2545C12.8543 0.251762 12.4272 0.250261 12 0.25ZM13.79 6.2685C14.8695 6.05795 15.9694 5.97089 17.0685 6.009C17.2451 6.01463 17.4129 6.08729 17.5378 6.21221C17.6627 6.33713 17.7354 6.50493 17.741 6.6815C17.7789 7.78066 17.6917 8.88056 17.481 9.96C17.365 10.548 16.655 10.719 16.2535 10.3175L15.7055 9.77C15.0655 10.3455 14.1635 11.217 13.455 12.133C12.7225 13.08 11.1105 13.014 10.5875 11.7805C10.31 11.126 9.931 10.2625 9.5785 9.555C9.0615 9.97 8.31 10.722 7.4415 12.05C7.36057 12.1736 7.25609 12.2801 7.134 12.3634C7.01192 12.4466 6.87464 12.505 6.72999 12.5352C6.58534 12.5654 6.43615 12.5669 6.29096 12.5394C6.14576 12.512 6.00739 12.4562 5.88375 12.3752C5.76011 12.2943 5.65362 12.1898 5.57036 12.0678C5.4871 11.9457 5.42871 11.8084 5.3985 11.6637C5.3683 11.5191 5.36689 11.3699 5.39434 11.2247C5.42179 11.0795 5.47757 10.9411 5.5585 10.8175C6.9375 8.71 8.166 7.719 8.94 7.263C9.834 6.736 10.84 7.156 11.263 7.921C11.5955 8.5225 11.9655 9.317 12.2795 10.0255C12.8559 9.37577 13.4678 8.75849 14.1125 8.1765L13.4325 7.4965C13.0305 7.095 13.2025 6.385 13.79 6.2685ZM6.5 14.375C6.20163 14.375 5.91548 14.4935 5.7045 14.7045C5.49353 14.9155 5.375 15.2016 5.375 15.5C5.375 15.7984 5.49353 16.0845 5.7045 16.2955C5.91548 16.5065 6.20163 16.625 6.5 16.625H17.5C17.7984 16.625 18.0845 16.5065 18.2955 16.2955C18.5065 16.0845 18.625 15.7984 18.625 15.5C18.625 15.2016 18.5065 14.9155 18.2955 14.7045C18.0845 14.4935 17.7984 14.375 17.5 14.375H6.5ZM6.5 17.875C6.20163 17.875 5.91548 17.9935 5.7045 18.2045C5.49353 18.4155 5.375 18.7016 5.375 19C5.375 19.2984 5.49353 19.5845 5.7045 19.7955C5.91548 20.0065 6.20163 20.125 6.5 20.125H17.5C17.7984 20.125 18.0845 20.0065 18.2955 19.7955C18.5065 19.5845 18.625 19.2984 18.625 19C18.625 18.7016 18.5065 18.4155 18.2955 18.2045C18.0845 17.9935 17.7984 17.875 17.5 17.875H6.5Z" fill="white"/>
</svg>
