<svg width="24" height="24" viewBox="0 0 24 24" fill="none" xmlns="http://www.w3.org/2000/svg">
<path d="M9.275 19H14.725L14.225 17H9.775L9.275 19ZM9 15H15C16.3833 15 17.5627 14.5123 18.538 13.537C19.5133 12.5617 20.0007 11.3827 20 10C19.9993 8.61733 19.5117 7.43833 18.537 6.463C17.5623 5.48767 16.3833 5 15 5H9C7.61667 5 6.43767 5.48767 5.463 6.463C4.48833 7.43833 4.00067 8.61733 4 10C3.99933 11.3827 4.487 12.562 5.463 13.538C6.439 14.514 7.618 15.0013 9 15ZM12 12C11.45 12 10.9793 11.8043 10.588 11.413C10.1967 11.0217 10.0007 10.5507 10 10C9.99933 9.44933 10.1953 8.97867 10.588 8.588C10.9807 8.19733 11.4513 8.00133 12 8C12.5487 7.99867 13.0197 8.19467 13.413 8.588C13.8063 8.98133 14.002 9.452 14 10C13.998 10.548 13.8023 11.019 13.413 11.413C13.0237 11.807 12.5527 12.0027 12 12ZM6.5 9C6.78333 9 7.021 8.904 7.213 8.712C7.405 8.52 7.50067 8.28267 7.5 8C7.49933 7.71733 7.40333 7.48 7.212 7.288C7.02067 7.096 6.78333 7 6.5 7C6.21667 7 5.97933 7.096 5.788 7.288C5.59667 7.48 5.50067 7.71733 5.5 8C5.49933 8.28267 5.59533 8.52033 5.788 8.713C5.98067 8.90567 6.218 9.00133 6.5 9ZM5 21C4.71667 21 4.47933 20.904 4.288 20.712C4.09667 20.52 4.00067 20.2827 4 20C3.99933 19.7173 4.09533 19.48 4.288 19.288C4.48067 19.096 4.718 19 5 19H7.225L7.75 16.9C6.1 16.6167 4.72933 15.829 3.638 14.537C2.54667 13.245 2.00067 11.7327 2 10C2 8.05 2.67933 6.396 4.038 5.038C5.39667 3.68 7.05067 3.00067 9 3H15C16.95 3 18.6043 3.67933 19.963 5.038C21.3217 6.39667 22.0007 8.05067 22 10C22 11.7333 21.454 13.246 20.362 14.538C19.27 15.83 17.8993 16.6173 16.25 16.9L16.775 19H19C19.2833 19 19.521 19.096 19.713 19.288C19.905 19.48 20.0007 19.7173 20 20C19.9993 20.2827 19.9033 20.5203 19.712 20.713C19.5207 20.9057 19.2833 21.0013 19 21H5ZM12 14C13.1 14 14.0417 13.6083 14.825 12.825C15.6083 12.0417 16 11.1 16 10C16 8.9 15.6083 7.95833 14.825 7.175C14.0417 6.39167 13.1 6 12 6C10.9 6 9.95833 6.39167 9.175 7.175C8.39167 7.95833 8 8.9 8 10C8 11.1 8.39167 12.0417 9.175 12.825C9.95833 13.6083 10.9 14 12 14Z" fill="white"/>
</svg>
