<svg width="24" height="24" viewBox="0 0 24 24" fill="none" xmlns="http://www.w3.org/2000/svg">
<g clip-path="url(#clip0_110_4609)">
<path d="M12 17C15.866 17 19 13.866 19 10C19 6.13401 15.866 3 12 3C8.13401 3 5 6.13401 5 10C5 13.866 8.13401 17 12 17Z" stroke="white" stroke-width="2" stroke-linecap="round" stroke-linejoin="round"/>
<path d="M12 13C13.6569 13 15 11.6569 15 10C15 8.34315 13.6569 7 12 7C10.3431 7 9 8.34315 9 10C9 11.6569 10.3431 13 12 13Z" stroke="white" stroke-width="2" stroke-linecap="round" stroke-linejoin="round"/>
<path d="M7.99981 16L5.90881 19.486C5.81791 19.6377 5.76887 19.8108 5.76668 19.9876C5.76449 20.1645 5.80923 20.3387 5.89635 20.4926C5.98347 20.6465 6.10984 20.7746 6.26258 20.8637C6.41532 20.9528 6.58896 20.9999 6.76581 21H17.2338C17.4107 20.9999 17.5843 20.9528 17.737 20.8637C17.8898 20.7746 18.0162 20.6465 18.1033 20.4926C18.1904 20.3387 18.2351 20.1645 18.2329 19.9876C18.2308 19.8108 18.1817 19.6377 18.0908 19.486L15.9998 16" stroke="white" stroke-width="2" stroke-linecap="round" stroke-linejoin="round"/>
</g>
<defs>
<clipPath id="clip0_110_4609">
<rect width="24" height="24" fill="white"/>
</clipPath>
</defs>
</svg>
