<svg width="24" height="24" viewBox="0 0 24 24" fill="none" xmlns="http://www.w3.org/2000/svg">
<path d="M20.25 14.25C20.025 14.25 19.725 14.325 19.5 14.4L15.3 9C16.05 8.175 16.5 7.125 16.5 6C16.5 3.525 14.475 1.5 12 1.5C9.525 1.5 7.5 3.525 7.5 6C7.5 7.2 7.95 8.25 8.7 9L4.5 14.4C4.275 14.325 3.975 14.25 3.75 14.25C2.475 14.25 1.5 15.225 1.5 16.5C1.5 17.775 2.475 18.75 3.75 18.75C5.025 18.75 6 17.775 6 16.5C6 16.05 5.85 15.675 5.625 15.3L9.825 9.975C10.275 10.2 10.725 10.35 11.25 10.425V18.15C10.35 18.45 9.75 19.275 9.75 20.25C9.75 21.525 10.725 22.5 12 22.5C13.275 22.5 14.25 21.525 14.25 20.25C14.25 19.275 13.65 18.45 12.75 18.15V10.425C13.275 10.35 13.725 10.2 14.175 9.975L18.375 15.3C18.15 15.675 18 16.05 18 16.5C18 17.775 18.975 18.75 20.25 18.75C21.525 18.75 22.5 17.775 22.5 16.5C22.5 15.225 21.525 14.25 20.25 14.25ZM12 3C13.65 3 15 4.35 15 6C15 7.65 13.65 9 12 9C10.35 9 9 7.65 9 6C9 4.35 10.35 3 12 3ZM3.75 17.25C3.3 17.25 3 16.95 3 16.5C3 16.05 3.3 15.75 3.75 15.75C4.2 15.75 4.5 16.05 4.5 16.5C4.5 16.95 4.2 17.25 3.75 17.25ZM12 21C11.55 21 11.25 20.7 11.25 20.25C11.25 19.8 11.55 19.5 12 19.5C12.45 19.5 12.75 19.8 12.75 20.25C12.75 20.7 12.45 21 12 21ZM20.25 17.25C19.8 17.25 19.5 16.95 19.5 16.5C19.5 16.05 19.8 15.75 20.25 15.75C20.7 15.75 21 16.05 21 16.5C21 16.95 20.7 17.25 20.25 17.25Z" fill="#00CC66"/>
<path d="M12 3C13.65 3 15 4.35 15 6C15 7.65 13.65 9 12 9C10.35 9 9 7.65 9 6C9 4.35 10.35 3 12 3Z" fill="#00CC66"/>
</svg>
