<svg width="24" height="24" viewBox="0 0 24 24" fill="none" xmlns="http://www.w3.org/2000/svg">
<path fill-rule="evenodd" clip-rule="evenodd" d="M10.9257 2.43862C11.2069 2.15772 11.5882 1.99994 11.9857 1.99994C12.3832 1.99994 12.7644 2.15772 13.0457 2.43862L15.8757 5.26662C16.0151 5.40592 16.1256 5.57132 16.2011 5.75337C16.2765 5.93542 16.3154 6.13056 16.3154 6.32762C16.3154 6.52468 16.2765 6.71982 16.2011 6.90187C16.1256 7.08392 16.0151 7.24932 15.8757 7.38862L13.0457 10.2166C12.7644 10.4975 12.3832 10.6553 11.9857 10.6553C11.5882 10.6553 11.2069 10.4975 10.9257 10.2166L8.09568 7.38862C7.95629 7.24932 7.84572 7.08392 7.77027 6.90187C7.69483 6.71982 7.656 6.52468 7.656 6.32762C7.656 6.13056 7.69483 5.93542 7.77027 5.75337C7.84572 5.57132 7.95629 5.40592 8.09568 5.26662L10.9257 2.43862ZM16.5817 8.09562C16.721 7.95623 16.8864 7.84565 17.0684 7.77021C17.2505 7.69477 17.4456 7.65594 17.6427 7.65594C17.8397 7.65594 18.0349 7.69477 18.2169 7.77021C18.399 7.84565 18.5644 7.95623 18.7037 8.09562L21.5317 10.9236C21.6711 11.0629 21.7816 11.2283 21.8571 11.4104C21.9325 11.5924 21.9714 11.7876 21.9714 11.9846C21.9714 12.1817 21.9325 12.3768 21.8571 12.5589C21.7816 12.7409 21.6711 12.9063 21.5317 13.0456L18.7037 15.8736C18.5644 16.013 18.399 16.1236 18.2169 16.199C18.0349 16.2745 17.8397 16.3133 17.6427 16.3133C17.4456 16.3133 17.2505 16.2745 17.0684 16.199C16.8864 16.1236 16.721 16.013 16.5817 15.8736L13.7537 13.0456C13.6143 12.9063 13.5037 12.7409 13.4283 12.5589C13.3528 12.3768 13.314 12.1817 13.314 11.9846C13.314 11.7876 13.3528 11.5924 13.4283 11.4104C13.5037 11.2283 13.6143 11.0629 13.7537 10.9236L16.5817 8.09562ZM5.26768 8.09562C5.40698 7.95623 5.57238 7.84565 5.75443 7.77021C5.93648 7.69477 6.13162 7.65594 6.32868 7.65594C6.52574 7.65594 6.72088 7.69477 6.90293 7.77021C7.08498 7.84565 7.25038 7.95623 7.38968 8.09562L10.2177 10.9236C10.3571 11.0629 10.4676 11.2283 10.5431 11.4104C10.6185 11.5924 10.6574 11.7876 10.6574 11.9846C10.6574 12.1817 10.6185 12.3768 10.5431 12.5589C10.4676 12.7409 10.3571 12.9063 10.2177 13.0456L7.38968 15.8736C7.25038 16.013 7.08498 16.1236 6.90293 16.199C6.72088 16.2745 6.52574 16.3133 6.32868 16.3133C6.13162 16.3133 5.93648 16.2745 5.75443 16.199C5.57238 16.1236 5.40698 16.013 5.26768 15.8736L2.43968 13.0456C2.30029 12.9063 2.18972 12.7409 2.11427 12.5589C2.03883 12.3768 2 12.1817 2 11.9846C2 11.7876 2.03883 11.5924 2.11427 11.4104C2.18972 11.2283 2.30029 11.0629 2.43968 10.9236L5.26768 8.09562ZM10.9247 13.7526C11.064 13.6132 11.2294 13.5027 11.4114 13.4272C11.5935 13.3518 11.7886 13.3129 11.9857 13.3129C12.1827 13.3129 12.3779 13.3518 12.5599 13.4272C12.742 13.5027 12.9074 13.6132 13.0467 13.7526L15.8747 16.5806C16.1559 16.8619 16.3139 17.2434 16.3139 17.6411C16.3139 18.0389 16.1559 18.4203 15.8747 18.7016L13.0467 21.5306C12.9074 21.67 12.742 21.7806 12.5599 21.856C12.3779 21.9315 12.1827 21.9703 11.9857 21.9703C11.7886 21.9703 11.5935 21.9315 11.4114 21.856C11.2294 21.7806 11.064 21.67 10.9247 21.5306L8.09668 18.7016C7.81578 18.4204 7.658 18.0391 7.658 17.6416C7.658 17.2441 7.81578 16.8629 8.09668 16.5816L10.9247 13.7526Z" fill="#00CC66"/>
</svg>
