<svg width="24" height="24" viewBox="0 0 24 24" fill="none" xmlns="http://www.w3.org/2000/svg">
<path d="M12 18.0001V5.00013M12 5.00013C12 4.53996 12.1058 4.08595 12.3093 3.67322C12.5129 3.2605 12.8086 2.90012 13.1737 2.61998C13.5387 2.33983 13.9634 2.14743 14.4147 2.05765C14.866 1.96787 15.332 1.98312 15.7765 2.10223C16.221 2.22133 16.6321 2.44109 16.9781 2.74451C17.324 3.04793 17.5956 3.42687 17.7717 3.85203C17.9478 4.27718 18.0237 4.73714 17.9936 5.19633C17.9635 5.65551 17.8281 6.10162 17.598 6.50013M12 5.00013C12 4.53996 11.8942 4.08595 11.6907 3.67322C11.4871 3.2605 11.1914 2.90012 10.8263 2.61998C10.4613 2.33983 10.0366 2.14743 9.5853 2.05765C9.13396 1.96787 8.66803 1.98312 8.22353 2.10223C7.77904 2.22133 7.3679 2.44109 7.02193 2.74451C6.67596 3.04793 6.40442 3.42687 6.22833 3.85203C6.05224 4.27718 5.97632 4.73714 6.00643 5.19633C6.03655 5.65551 6.17189 6.10162 6.402 6.50013M15 13.0001C14.1348 12.7472 13.3748 12.2208 12.834 11.4996C12.2932 10.7785 12.0005 9.90154 12 9.00013C11.9995 9.90154 11.7068 10.7785 11.166 11.4996C10.6252 12.2208 9.8652 12.7472 9 13.0001" stroke="#B8B8B8" stroke-width="2" stroke-linecap="round" stroke-linejoin="round"/>
<path d="M17.9971 5.125C18.5849 5.27614 19.1306 5.55905 19.5928 5.95231C20.0551 6.34557 20.4218 6.83887 20.6652 7.39485C20.9086 7.95082 21.0223 8.55489 20.9977 9.16131C20.9731 9.76773 20.8108 10.3606 20.5231 10.895" stroke="#B8B8B8" stroke-width="2" stroke-linecap="round" stroke-linejoin="round"/>
<path d="M18 18.0001C18.8805 18.0001 19.7364 17.7095 20.4349 17.1735C21.1335 16.6375 21.6356 15.8859 21.8635 15.0354C22.0914 14.1849 22.0323 13.283 21.6954 12.4695C21.3585 11.656 20.7625 10.9764 20 10.5361" stroke="#B8B8B8" stroke-width="2" stroke-linecap="round" stroke-linejoin="round"/>
<path d="M19.967 17.4829C20.0371 18.0251 19.9953 18.576 19.8441 19.1014C19.693 19.6269 19.4357 20.1157 19.0882 20.5379C18.7407 20.96 18.3104 21.3064 17.8238 21.5557C17.3372 21.805 16.8046 21.9518 16.259 21.9872C15.7134 22.0227 15.1664 21.9458 14.6516 21.7615C14.1369 21.5772 13.6654 21.2893 13.2662 20.9157C12.8671 20.542 12.5488 20.0905 12.331 19.589C12.1132 19.0875 12.0006 18.5467 12 17.9999C11.9994 18.5467 11.8867 19.0875 11.669 19.589C11.4512 20.0905 11.1329 20.542 10.7338 20.9157C10.3346 21.2893 9.86313 21.5772 9.34838 21.7615C8.83364 21.9458 8.28657 22.0227 7.74097 21.9872C7.19537 21.9518 6.66283 21.805 6.17622 21.5557C5.68961 21.3064 5.25927 20.96 4.91178 20.5379C4.56429 20.1157 4.30703 19.6269 4.15589 19.1014C4.00474 18.576 3.96291 18.0251 4.033 17.4829" stroke="#B8B8B8" stroke-width="2" stroke-linecap="round" stroke-linejoin="round"/>
<path d="M5.99983 18.0001C5.11932 18.0001 4.26343 17.7095 3.56489 17.1735C2.86635 16.6375 2.3642 15.8859 2.1363 15.0354C1.90841 14.1849 1.96751 13.283 2.30444 12.4695C2.64137 11.656 3.23731 10.9764 3.99983 10.5361" stroke="#B8B8B8" stroke-width="2" stroke-linecap="round" stroke-linejoin="round"/>
<path d="M6.00293 5.125C5.41513 5.27614 4.86943 5.55905 4.40716 5.95231C3.94489 6.34557 3.57817 6.83887 3.33477 7.39485C3.09138 7.95082 2.97769 8.55489 3.00232 9.16131C3.02695 9.76773 3.18925 10.3606 3.47693 10.895" stroke="#B8B8B8" stroke-width="2" stroke-linecap="round" stroke-linejoin="round"/>
</svg>
