<svg width="24" height="24" viewBox="0 0 24 24" fill="none" xmlns="http://www.w3.org/2000/svg">
<path d="M12.0039 22.5221C17.8132 22.5221 22.5225 17.8128 22.5225 12.0035C22.5225 6.19428 17.8132 1.48496 12.0039 1.48496C6.19467 1.48496 1.48535 6.19428 1.48535 12.0035C1.48535 17.8128 6.19467 22.5221 12.0039 22.5221Z" stroke="white" stroke-width="2" stroke-miterlimit="10"/>
<path d="M3.73633 18.504C5.63668 17.6695 8.78524 17.1225 12.3405 17.1225C15.6223 17.1225 18.5535 17.5854 20.4819 18.3146" stroke="white" stroke-width="2" stroke-miterlimit="10"/>
<path d="M9.53451 1.69529C7.41677 4.03742 6.02832 7.90826 6.02832 12.291C6.02832 16.2319 7.1503 19.7662 8.92443 22.1434" stroke="white" stroke-width="2" stroke-miterlimit="10"/>
<path d="M14.4648 1.6883C16.5896 4.03044 17.9851 7.89426 17.9921 12.277C17.9991 16.0567 16.9753 19.4577 15.3344 21.8278" stroke="white" stroke-width="2" stroke-miterlimit="10"/>
<path d="M3.79883 5.20852C5.69217 6.06403 8.83371 6.63905 12.389 6.67411C15.6708 6.70216 18.602 6.26739 20.5444 5.55213" stroke="white" stroke-width="2" stroke-miterlimit="10"/>
<path d="M1.48535 12.0035H22.5155" stroke="white" stroke-width="2" stroke-miterlimit="10"/>
</svg>
