<svg width="109" height="104" viewBox="0 0 109 104" fill="none" xmlns="http://www.w3.org/2000/svg">
<path d="M104.729 53.2054C102.351 53.2055 100.427 55.1263 100.427 57.4926V99.2123C100.427 101.579 102.351 103.5 104.729 103.5H108.5V53.2054H104.729Z" fill="#414141" stroke="#393939"/>
<path d="M99.4258 64.0984C94.6019 64.3572 90.7725 68.338 90.7725 73.2078V83.4978C90.7725 88.3675 94.602 92.3474 99.4258 92.6062V64.0984Z" fill="#E2E2E2" stroke="#393939"/>
<path d="M64.8311 51.9603V82.3304H89.7735V75.1752H72.0118V51.9603H64.8311Z" fill="#E2E2E2" stroke="#393939"/>
<path d="M25.1085 27.7516C16.0003 27.7516 8.61939 35.1115 8.61921 44.1871C8.61921 53.2629 16.0002 60.6237 25.1085 60.6237C34.2167 60.6236 41.5977 53.2629 41.5977 44.1871C41.5975 35.1115 34.2166 27.7516 25.1085 27.7516Z" fill="#00CC66" stroke="#393939"/>
<path d="M92.5059 1.00488C92.3795 0.621333 91.9641 0.410015 91.5762 0.537109L1.0069 30.2051C0.430551 30.3939 0.318642 31.1551 0.813545 31.501L23.6671 47.458L98.919 22.8066C99.2818 22.6878 99.4879 22.3166 99.4083 21.9551L99.3887 21.8828L92.5059 1.00488Z" fill="#1B1B1B" stroke="#393939"/>
<path d="M24.2139 48.3304L28.8458 62.3842C29.3682 63.9676 31.0801 64.8311 32.671 64.3099L91.1661 45.1478C92.7069 44.6431 93.5661 43.0259 93.1436 41.4867L93.0987 41.3383L88.4669 27.2826L24.2139 48.3304Z" fill="#414141" stroke="#393939"/>
<path d="M83.3653 19.2321C82.4672 19.2322 81.7423 19.9577 81.7423 20.8492C81.7423 21.7407 82.4672 22.4663 83.3653 22.4664C84.2635 22.4664 84.9893 21.7408 84.9893 20.8492C84.9893 19.9576 84.2636 19.2321 83.3653 19.2321Z" fill="white" stroke="#393939"/>
<path d="M77.1866 21.256C76.2884 21.2561 75.5635 21.9816 75.5635 22.8732C75.5636 23.7646 76.2885 24.4902 77.1866 24.4904C78.0848 24.4904 78.8106 23.7647 78.8106 22.8732C78.8106 21.9816 78.0849 21.256 77.1866 21.256Z" fill="white" stroke="#393939"/>
<path d="M71.0069 23.2804C70.1088 23.2805 69.3839 24.0061 69.3839 24.8976C69.3839 25.7891 70.1088 26.5146 71.0069 26.5148C71.9051 26.5148 72.6309 25.7891 72.6309 24.8976C72.6309 24.006 71.9052 23.2804 71.0069 23.2804Z" fill="white" stroke="#393939"/>
<path d="M41.9092 22.4191C41.7396 21.9043 41.1822 21.6221 40.6632 21.7921L18.1632 29.1622C17.6447 29.3322 17.365 29.8878 17.5342 30.4015C17.704 30.9166 18.2612 31.1987 18.7803 31.0284L41.2803 23.6583C41.7989 23.4884 42.0786 22.9328 41.9092 22.4191Z" fill="white" stroke="#393939"/>
</svg>
