<svg width="224" height="209" viewBox="0 0 224 209" fill="none" xmlns="http://www.w3.org/2000/svg">
<path d="M107.342 0.222534C100.094 0.91378 92.4272 3.8022 86.4366 8.04843C83.5768 10.0728 79.1146 14.4425 77.1177 17.1581C66.6648 31.4274 66.1718 50.7576 75.9097 65.3725C80.791 72.7047 87.3734 78.21 95.3116 81.5922C100.292 83.7153 104.384 84.5793 110.227 84.8015C118.338 85.0731 124.821 83.7153 131.552 80.2837C135.94 78.0372 138.8 75.9141 142.645 72.0381C146.442 68.2363 148.636 65.2985 150.732 61.1757C154.035 54.7817 155.317 49.4245 155.317 42.2898C155.317 38.0189 155.046 35.7477 154.06 31.9211C148.759 11.3565 129.234 -1.90058 107.342 0.222534ZM104.926 11.554C105.37 11.9984 105.419 12.3687 105.419 15.1337V18.2196H103.694H101.968V15.2571C101.968 12.4181 101.993 12.2453 102.584 11.6775C103.299 10.9369 104.261 10.8875 104.926 11.554ZM113.185 11.6775C113.777 12.2453 113.801 12.4181 113.801 15.2571V18.2196H112.076H110.35V15.2078C110.35 12.4675 110.399 12.1465 110.892 11.6281C111.583 10.8875 112.446 10.9122 113.185 11.6775ZM121.69 11.554C122.134 11.9984 122.183 12.3687 122.183 15.1337V18.2196H120.458H118.732V15.2571C118.732 12.4181 118.757 12.2453 119.348 11.6775C120.063 10.9369 121.025 10.8875 121.69 11.554ZM129.826 21.034C130.294 21.2809 131.108 21.8981 131.626 22.3671C133.302 23.9718 133.277 23.7743 133.277 41.6726C133.277 59.5957 133.327 59.1019 131.502 60.9288C129.752 62.6816 130.048 62.6569 112.15 62.6569C101.179 62.6569 95.928 62.5829 95.1637 62.3854C94.4734 62.2126 93.6106 61.6941 92.8463 61.0029C90.7755 59.1266 90.8494 59.9413 90.9234 41.1542C90.9974 25.6999 91.022 24.7124 91.4658 23.8977C92.3533 22.219 93.7339 21.0834 95.4349 20.6637C95.854 20.5649 103.546 20.4909 112.569 20.5156C128.026 20.5649 129.012 20.5896 129.826 21.034ZM88.9019 32.9086V34.5133H85.8449C83.3056 34.5133 82.7139 34.4392 82.2948 34.0689C81.5553 33.4518 81.4813 32.3408 82.1469 31.6989C82.4428 31.378 83.1577 31.304 85.7216 31.304H88.9019V32.9086ZM142.152 31.7977C142.793 32.4396 142.769 33.2296 142.103 33.9455C141.61 34.4886 141.388 34.5133 138.405 34.5133H135.25V32.9086V31.304H138.454C141.339 31.304 141.709 31.3533 142.152 31.7977ZM88.9019 41.6726V43.4008H85.8202C83.0591 43.4008 82.6893 43.3514 82.2455 42.907C81.5306 42.1911 81.6046 41.0802 82.3935 40.463C82.9851 39.9939 83.3796 39.9445 85.9681 39.9445H88.9019V41.6726ZM142.029 40.5617C142.374 40.8827 142.645 41.3764 142.645 41.6726C142.645 41.9442 142.374 42.4626 142.029 42.7836C141.462 43.3761 141.29 43.4008 138.331 43.4008H135.25V41.6726V39.9445H138.331C141.29 39.9445 141.462 39.9692 142.029 40.5617ZM88.9019 50.4367V52.0414H85.7709C82.9112 52.0414 82.5907 51.992 82.073 51.4982C81.3827 50.8564 81.3334 49.9923 81.999 49.3257C82.4428 48.8814 82.8126 48.832 85.697 48.832H88.9019V50.4367ZM142.152 49.3257C142.793 49.9676 142.769 50.5848 142.128 51.3995C141.635 52.0414 141.585 52.0414 138.43 52.0414H135.25V50.4367V48.832H138.454C141.339 48.832 141.709 48.8814 142.152 49.3257ZM105.419 67.8413C105.419 70.7297 105.37 71.1 104.926 71.5444C104.433 72.0381 103.324 72.1863 102.806 71.8406C102.165 71.4209 101.968 70.4581 101.968 67.6191V64.6319H103.694H105.419V67.8413ZM113.801 67.8413C113.801 70.7297 113.752 71.1 113.308 71.5444C113.037 71.8159 112.495 72.0381 112.076 72.0381C111.657 72.0381 111.114 71.8159 110.843 71.5444C110.399 71.1 110.35 70.7297 110.35 67.8413V64.6319H112.076H113.801V67.8413ZM122.183 67.7919C122.183 71.4209 121.962 72.0381 120.63 72.0381C119.028 72.0381 118.732 71.3716 118.732 67.6191V64.6319H120.458H122.183V67.7919Z" fill="#EEEEEE"/>
<path d="M107.342 0.222534C100.094 0.91378 92.4272 3.8022 86.4366 8.04843C83.5768 10.0728 79.1146 14.4425 77.1177 17.1581C66.6648 31.4274 66.1718 50.7576 75.9097 65.3725C80.791 72.7047 87.3734 78.21 95.3116 81.5922C100.292 83.7153 104.384 84.5793 110.227 84.8015C118.338 85.0731 124.821 83.7153 131.552 80.2837C135.94 78.0372 138.8 75.9141 142.645 72.0381C146.442 68.2363 148.636 65.2985 150.732 61.1757C154.035 54.7817 155.317 49.4245 155.317 42.2898C155.317 38.0189 155.046 35.7477 154.06 31.9211C148.759 11.3565 129.234 -1.90058 107.342 0.222534ZM104.926 11.554C105.37 11.9984 105.419 12.3687 105.419 15.1337V18.2196H103.694H101.968V15.2571C101.968 12.4181 101.993 12.2453 102.584 11.6775C103.299 10.9369 104.261 10.8875 104.926 11.554ZM113.185 11.6775C113.777 12.2453 113.801 12.4181 113.801 15.2571V18.2196H112.076H110.35V15.2078C110.35 12.4675 110.399 12.1465 110.892 11.6281C111.583 10.8875 112.446 10.9122 113.185 11.6775ZM121.69 11.554C122.134 11.9984 122.183 12.3687 122.183 15.1337V18.2196H120.458H118.732V15.2571C118.732 12.4181 118.757 12.2453 119.348 11.6775C120.063 10.9369 121.025 10.8875 121.69 11.554ZM129.826 21.034C130.294 21.2809 131.108 21.8981 131.626 22.3671C133.302 23.9718 133.277 23.7743 133.277 41.6726C133.277 59.5957 133.327 59.1019 131.502 60.9288C129.752 62.6816 130.048 62.6569 112.15 62.6569C101.179 62.6569 95.928 62.5829 95.1637 62.3854C94.4734 62.2126 93.6106 61.6941 92.8463 61.0029C90.7755 59.1266 90.8494 59.9413 90.9234 41.1542C90.9974 25.6999 91.022 24.7124 91.4658 23.8977C92.3533 22.219 93.7339 21.0834 95.4349 20.6637C95.854 20.5649 103.546 20.4909 112.569 20.5156C128.026 20.5649 129.012 20.5896 129.826 21.034ZM88.9019 32.9086V34.5133H85.8449C83.3056 34.5133 82.7139 34.4392 82.2948 34.0689C81.5553 33.4518 81.4813 32.3408 82.1469 31.6989C82.4428 31.378 83.1577 31.304 85.7216 31.304H88.9019V32.9086ZM142.152 31.7977C142.793 32.4396 142.769 33.2296 142.103 33.9455C141.61 34.4886 141.388 34.5133 138.405 34.5133H135.25V32.9086V31.304H138.454C141.339 31.304 141.709 31.3533 142.152 31.7977ZM88.9019 41.6726V43.4008H85.8202C83.0591 43.4008 82.6893 43.3514 82.2455 42.907C81.5306 42.1911 81.6046 41.0802 82.3935 40.463C82.9851 39.9939 83.3796 39.9445 85.9681 39.9445H88.9019V41.6726ZM142.029 40.5617C142.374 40.8827 142.645 41.3764 142.645 41.6726C142.645 41.9442 142.374 42.4626 142.029 42.7836C141.462 43.3761 141.29 43.4008 138.331 43.4008H135.25V41.6726V39.9445H138.331C141.29 39.9445 141.462 39.9692 142.029 40.5617ZM88.9019 50.4367V52.0414H85.7709C82.9112 52.0414 82.5907 51.992 82.073 51.4982C81.3827 50.8564 81.3334 49.9923 81.999 49.3257C82.4428 48.8814 82.8126 48.832 85.697 48.832H88.9019V50.4367ZM142.152 49.3257C142.793 49.9676 142.769 50.5848 142.128 51.3995C141.635 52.0414 141.585 52.0414 138.43 52.0414H135.25V50.4367V48.832H138.454C141.339 48.832 141.709 48.8814 142.152 49.3257ZM105.419 67.8413C105.419 70.7297 105.37 71.1 104.926 71.5444C104.433 72.0381 103.324 72.1863 102.806 71.8406C102.165 71.4209 101.968 70.4581 101.968 67.6191V64.6319H103.694H105.419V67.8413ZM113.801 67.8413C113.801 70.7297 113.752 71.1 113.308 71.5444C113.037 71.8159 112.495 72.0381 112.076 72.0381C111.657 72.0381 111.114 71.8159 110.843 71.5444C110.399 71.1 110.35 70.7297 110.35 67.8413V64.6319H112.076H113.801V67.8413ZM122.183 67.7919C122.183 71.4209 121.962 72.0381 120.63 72.0381C119.028 72.0381 118.732 71.3716 118.732 67.6191V64.6319H120.458H122.183V67.7919Z" fill="black" fill-opacity="0.1"/>
<path d="M107.342 0.222534C100.094 0.91378 92.4272 3.8022 86.4366 8.04843C83.5768 10.0728 79.1146 14.4425 77.1177 17.1581C66.6648 31.4274 66.1718 50.7576 75.9097 65.3725C80.791 72.7047 87.3734 78.21 95.3116 81.5922C100.292 83.7153 104.384 84.5793 110.227 84.8015C118.338 85.0731 124.821 83.7153 131.552 80.2837C135.94 78.0372 138.8 75.9141 142.645 72.0381C146.442 68.2363 148.636 65.2985 150.732 61.1757C154.035 54.7817 155.317 49.4245 155.317 42.2898C155.317 38.0189 155.046 35.7477 154.06 31.9211C148.759 11.3565 129.234 -1.90058 107.342 0.222534ZM104.926 11.554C105.37 11.9984 105.419 12.3687 105.419 15.1337V18.2196H103.694H101.968V15.2571C101.968 12.4181 101.993 12.2453 102.584 11.6775C103.299 10.9369 104.261 10.8875 104.926 11.554ZM113.185 11.6775C113.777 12.2453 113.801 12.4181 113.801 15.2571V18.2196H112.076H110.35V15.2078C110.35 12.4675 110.399 12.1465 110.892 11.6281C111.583 10.8875 112.446 10.9122 113.185 11.6775ZM121.69 11.554C122.134 11.9984 122.183 12.3687 122.183 15.1337V18.2196H120.458H118.732V15.2571C118.732 12.4181 118.757 12.2453 119.348 11.6775C120.063 10.9369 121.025 10.8875 121.69 11.554ZM129.826 21.034C130.294 21.2809 131.108 21.8981 131.626 22.3671C133.302 23.9718 133.277 23.7743 133.277 41.6726C133.277 59.5957 133.327 59.1019 131.502 60.9288C129.752 62.6816 130.048 62.6569 112.15 62.6569C101.179 62.6569 95.928 62.5829 95.1637 62.3854C94.4734 62.2126 93.6106 61.6941 92.8463 61.0029C90.7755 59.1266 90.8494 59.9413 90.9234 41.1542C90.9974 25.6999 91.022 24.7124 91.4658 23.8977C92.3533 22.219 93.7339 21.0834 95.4349 20.6637C95.854 20.5649 103.546 20.4909 112.569 20.5156C128.026 20.5649 129.012 20.5896 129.826 21.034ZM88.9019 32.9086V34.5133H85.8449C83.3056 34.5133 82.7139 34.4392 82.2948 34.0689C81.5553 33.4518 81.4813 32.3408 82.1469 31.6989C82.4428 31.378 83.1577 31.304 85.7216 31.304H88.9019V32.9086ZM142.152 31.7977C142.793 32.4396 142.769 33.2296 142.103 33.9455C141.61 34.4886 141.388 34.5133 138.405 34.5133H135.25V32.9086V31.304H138.454C141.339 31.304 141.709 31.3533 142.152 31.7977ZM88.9019 41.6726V43.4008H85.8202C83.0591 43.4008 82.6893 43.3514 82.2455 42.907C81.5306 42.1911 81.6046 41.0802 82.3935 40.463C82.9851 39.9939 83.3796 39.9445 85.9681 39.9445H88.9019V41.6726ZM142.029 40.5617C142.374 40.8827 142.645 41.3764 142.645 41.6726C142.645 41.9442 142.374 42.4626 142.029 42.7836C141.462 43.3761 141.29 43.4008 138.331 43.4008H135.25V41.6726V39.9445H138.331C141.29 39.9445 141.462 39.9692 142.029 40.5617ZM88.9019 50.4367V52.0414H85.7709C82.9112 52.0414 82.5907 51.992 82.073 51.4982C81.3827 50.8564 81.3334 49.9923 81.999 49.3257C82.4428 48.8814 82.8126 48.832 85.697 48.832H88.9019V50.4367ZM142.152 49.3257C142.793 49.9676 142.769 50.5848 142.128 51.3995C141.635 52.0414 141.585 52.0414 138.43 52.0414H135.25V50.4367V48.832H138.454C141.339 48.832 141.709 48.8814 142.152 49.3257ZM105.419 67.8413C105.419 70.7297 105.37 71.1 104.926 71.5444C104.433 72.0381 103.324 72.1863 102.806 71.8406C102.165 71.4209 101.968 70.4581 101.968 67.6191V64.6319H103.694H105.419V67.8413ZM113.801 67.8413C113.801 70.7297 113.752 71.1 113.308 71.5444C113.037 71.8159 112.495 72.0381 112.076 72.0381C111.657 72.0381 111.114 71.8159 110.843 71.5444C110.399 71.1 110.35 70.7297 110.35 67.8413V64.6319H112.076H113.801V67.8413ZM122.183 67.7919C122.183 71.4209 121.962 72.0381 120.63 72.0381C119.028 72.0381 118.732 71.3716 118.732 67.6191V64.6319H120.458H122.183V67.7919Z" fill="#00CC66"/>
<path d="M113.924 25.4781C113.382 25.6509 112.618 25.9965 112.273 26.2187C111.607 26.6384 111.558 26.6384 110.448 26.0953C107.12 24.4906 103.225 25.8484 101.598 29.1812C101.154 30.1193 100.71 30.6131 100.217 30.8106C99.1573 31.2549 97.6288 33.1312 97.1357 34.563C96.8399 35.5012 96.766 36.2912 96.8646 37.6737C96.9878 39.3771 96.9385 39.6486 96.3715 40.6361C95.5086 42.0927 95.3114 44.7589 95.9031 46.5611C96.4455 48.2152 97.6288 49.9433 98.6149 50.5358C99.2559 50.9308 99.4531 51.2764 99.675 52.412C100.563 56.6089 105.271 58.8061 109.487 56.9792C110.029 56.7323 110.769 56.2386 111.163 55.8683L111.854 55.177L112.519 55.8189C114.368 57.5964 118.115 58.1642 120.482 57.0039C122.306 56.1398 124.155 53.9426 124.155 52.6589C124.155 52.4614 124.599 51.8936 125.117 51.3998C127.385 49.3755 128.47 46.5611 128.297 43.3024C128.223 41.7964 128.026 40.9571 127.508 39.8708C126.867 38.5377 126.843 38.3649 127.114 37.1799C127.977 33.6496 126.054 29.9465 122.775 28.6874C122.06 28.4159 121.098 27.774 120.433 27.0828C118.732 25.33 116.291 24.7375 113.924 25.4781ZM117.598 27.9468C118.781 28.4406 119.471 29.4528 119.471 30.7118C119.471 31.9709 118.88 32.7609 117.253 33.6002C116.02 34.2421 115.675 35.1309 116.39 35.8468C116.957 36.3899 117.696 36.3405 119.151 35.6246C120.63 34.884 121.666 33.5015 121.863 32.0696C121.937 31.5018 122.085 31.0574 122.208 31.0574C122.627 31.0574 124.254 32.6868 124.55 33.4521C125.635 35.9949 124.279 38.8586 121.887 39.1055C120.038 39.3277 119.718 39.4511 119.422 40.0683C118.707 41.673 121.616 42.2902 124.057 41.0558C124.722 40.7102 125.29 40.4386 125.29 40.4386C125.314 40.4386 125.536 41.1546 125.758 42.0433C126.424 44.4874 125.906 46.8574 124.303 48.7583L123.638 49.5483L122.726 48.5855C121.197 47.0055 119.669 46.9808 119.521 48.5361C119.447 49.2027 119.57 49.3755 120.408 49.9186C122.208 51.0542 122.208 52.6095 120.458 54.1155C118.609 55.6461 115.773 55.4979 114.023 53.7451L113.062 52.7823V49.3261V45.8699H113.752C114.122 45.8699 114.837 46.0921 115.354 46.3636C116.587 47.0302 117.203 46.9808 117.548 46.2402C117.77 45.7711 117.721 45.5242 117.401 45.0058C116.858 44.1911 115.206 43.4258 113.998 43.4011H113.062V36.1677C113.062 32.2177 113.16 28.8356 113.259 28.6628C113.875 27.6999 116.094 27.3296 117.598 27.9468ZM109.635 28.4159L110.473 28.9837L110.547 34.2174L110.596 39.4511H108.772C106.381 39.4511 104.532 40.1177 103.373 41.4014C102.387 42.4877 102.116 43.1789 102.313 44.0183C102.485 44.6602 103.25 45.0305 103.792 44.7096C103.989 44.6108 104.408 44.1171 104.729 43.648C105.567 42.4136 106.676 41.9446 108.821 41.9199H110.621L110.547 47.3264C110.473 53.4983 110.424 53.6464 108.378 54.6833C106.43 55.6954 104.458 55.3251 103.003 53.6711C101.499 51.9677 101.746 50.5111 103.718 49.3014C104.951 48.5361 105.222 48.0424 104.901 47.1536C104.754 46.7833 104.482 46.6105 104.039 46.6105C103.225 46.6105 101.401 47.6474 100.858 48.4127L100.464 48.9558L99.5271 47.9189C98.467 46.7586 98.0233 45.4749 98.0233 43.7468C98.0233 42.068 98.467 41.278 99.3299 41.3768C100.76 41.5496 101.179 40.3152 100.094 39.1796C99.4038 38.439 99.034 36.6368 99.3545 35.4024C99.5024 34.7605 100.883 33.0324 101.228 33.0324C101.327 33.0324 101.672 33.4274 101.992 33.8965C102.707 34.958 104.729 36.0443 105.468 35.7727C106.726 35.3037 106.43 33.7977 104.975 33.0571C103.915 32.514 103.693 32.1684 103.693 30.9587C103.693 28.5146 107.416 26.9346 109.635 28.4159Z" fill="#EEEEEE"/>
<path d="M113.924 25.4781C113.382 25.6509 112.618 25.9965 112.273 26.2187C111.607 26.6384 111.558 26.6384 110.448 26.0953C107.12 24.4906 103.225 25.8484 101.598 29.1812C101.154 30.1193 100.71 30.6131 100.217 30.8106C99.1573 31.2549 97.6288 33.1312 97.1357 34.563C96.8399 35.5012 96.766 36.2912 96.8646 37.6737C96.9878 39.3771 96.9385 39.6486 96.3715 40.6361C95.5086 42.0927 95.3114 44.7589 95.9031 46.5611C96.4455 48.2152 97.6288 49.9433 98.6149 50.5358C99.2559 50.9308 99.4531 51.2764 99.675 52.412C100.563 56.6089 105.271 58.8061 109.487 56.9792C110.029 56.7323 110.769 56.2386 111.163 55.8683L111.854 55.177L112.519 55.8189C114.368 57.5964 118.115 58.1642 120.482 57.0039C122.306 56.1398 124.155 53.9426 124.155 52.6589C124.155 52.4614 124.599 51.8936 125.117 51.3998C127.385 49.3755 128.47 46.5611 128.297 43.3024C128.223 41.7964 128.026 40.9571 127.508 39.8708C126.867 38.5377 126.843 38.3649 127.114 37.1799C127.977 33.6496 126.054 29.9465 122.775 28.6874C122.06 28.4159 121.098 27.774 120.433 27.0828C118.732 25.33 116.291 24.7375 113.924 25.4781ZM117.598 27.9468C118.781 28.4406 119.471 29.4528 119.471 30.7118C119.471 31.9709 118.88 32.7609 117.253 33.6002C116.02 34.2421 115.675 35.1309 116.39 35.8468C116.957 36.3899 117.696 36.3405 119.151 35.6246C120.63 34.884 121.666 33.5015 121.863 32.0696C121.937 31.5018 122.085 31.0574 122.208 31.0574C122.627 31.0574 124.254 32.6868 124.55 33.4521C125.635 35.9949 124.279 38.8586 121.887 39.1055C120.038 39.3277 119.718 39.4511 119.422 40.0683C118.707 41.673 121.616 42.2902 124.057 41.0558C124.722 40.7102 125.29 40.4386 125.29 40.4386C125.314 40.4386 125.536 41.1546 125.758 42.0433C126.424 44.4874 125.906 46.8574 124.303 48.7583L123.638 49.5483L122.726 48.5855C121.197 47.0055 119.669 46.9808 119.521 48.5361C119.447 49.2027 119.57 49.3755 120.408 49.9186C122.208 51.0542 122.208 52.6095 120.458 54.1155C118.609 55.6461 115.773 55.4979 114.023 53.7451L113.062 52.7823V49.3261V45.8699H113.752C114.122 45.8699 114.837 46.0921 115.354 46.3636C116.587 47.0302 117.203 46.9808 117.548 46.2402C117.77 45.7711 117.721 45.5242 117.401 45.0058C116.858 44.1911 115.206 43.4258 113.998 43.4011H113.062V36.1677C113.062 32.2177 113.16 28.8356 113.259 28.6628C113.875 27.6999 116.094 27.3296 117.598 27.9468ZM109.635 28.4159L110.473 28.9837L110.547 34.2174L110.596 39.4511H108.772C106.381 39.4511 104.532 40.1177 103.373 41.4014C102.387 42.4877 102.116 43.1789 102.313 44.0183C102.485 44.6602 103.25 45.0305 103.792 44.7096C103.989 44.6108 104.408 44.1171 104.729 43.648C105.567 42.4136 106.676 41.9446 108.821 41.9199H110.621L110.547 47.3264C110.473 53.4983 110.424 53.6464 108.378 54.6833C106.43 55.6954 104.458 55.3251 103.003 53.6711C101.499 51.9677 101.746 50.5111 103.718 49.3014C104.951 48.5361 105.222 48.0424 104.901 47.1536C104.754 46.7833 104.482 46.6105 104.039 46.6105C103.225 46.6105 101.401 47.6474 100.858 48.4127L100.464 48.9558L99.5271 47.9189C98.467 46.7586 98.0233 45.4749 98.0233 43.7468C98.0233 42.068 98.467 41.278 99.3299 41.3768C100.76 41.5496 101.179 40.3152 100.094 39.1796C99.4038 38.439 99.034 36.6368 99.3545 35.4024C99.5024 34.7605 100.883 33.0324 101.228 33.0324C101.327 33.0324 101.672 33.4274 101.992 33.8965C102.707 34.958 104.729 36.0443 105.468 35.7727C106.726 35.3037 106.43 33.7977 104.975 33.0571C103.915 32.514 103.693 32.1684 103.693 30.9587C103.693 28.5146 107.416 26.9346 109.635 28.4159Z" fill="black" fill-opacity="0.1"/>
<path d="M113.924 25.4781C113.382 25.6509 112.618 25.9965 112.273 26.2187C111.607 26.6384 111.558 26.6384 110.448 26.0953C107.12 24.4906 103.225 25.8484 101.598 29.1812C101.154 30.1193 100.71 30.6131 100.217 30.8106C99.1573 31.2549 97.6288 33.1312 97.1357 34.563C96.8399 35.5012 96.766 36.2912 96.8646 37.6737C96.9878 39.3771 96.9385 39.6486 96.3715 40.6361C95.5086 42.0927 95.3114 44.7589 95.9031 46.5611C96.4455 48.2152 97.6288 49.9433 98.6149 50.5358C99.2559 50.9308 99.4531 51.2764 99.675 52.412C100.563 56.6089 105.271 58.8061 109.487 56.9792C110.029 56.7323 110.769 56.2386 111.163 55.8683L111.854 55.177L112.519 55.8189C114.368 57.5964 118.115 58.1642 120.482 57.0039C122.306 56.1398 124.155 53.9426 124.155 52.6589C124.155 52.4614 124.599 51.8936 125.117 51.3998C127.385 49.3755 128.47 46.5611 128.297 43.3024C128.223 41.7964 128.026 40.9571 127.508 39.8708C126.867 38.5377 126.843 38.3649 127.114 37.1799C127.977 33.6496 126.054 29.9465 122.775 28.6874C122.06 28.4159 121.098 27.774 120.433 27.0828C118.732 25.33 116.291 24.7375 113.924 25.4781ZM117.598 27.9468C118.781 28.4406 119.471 29.4528 119.471 30.7118C119.471 31.9709 118.88 32.7609 117.253 33.6002C116.02 34.2421 115.675 35.1309 116.39 35.8468C116.957 36.3899 117.696 36.3405 119.151 35.6246C120.63 34.884 121.666 33.5015 121.863 32.0696C121.937 31.5018 122.085 31.0574 122.208 31.0574C122.627 31.0574 124.254 32.6868 124.55 33.4521C125.635 35.9949 124.279 38.8586 121.887 39.1055C120.038 39.3277 119.718 39.4511 119.422 40.0683C118.707 41.673 121.616 42.2902 124.057 41.0558C124.722 40.7102 125.29 40.4386 125.29 40.4386C125.314 40.4386 125.536 41.1546 125.758 42.0433C126.424 44.4874 125.906 46.8574 124.303 48.7583L123.638 49.5483L122.726 48.5855C121.197 47.0055 119.669 46.9808 119.521 48.5361C119.447 49.2027 119.57 49.3755 120.408 49.9186C122.208 51.0542 122.208 52.6095 120.458 54.1155C118.609 55.6461 115.773 55.4979 114.023 53.7451L113.062 52.7823V49.3261V45.8699H113.752C114.122 45.8699 114.837 46.0921 115.354 46.3636C116.587 47.0302 117.203 46.9808 117.548 46.2402C117.77 45.7711 117.721 45.5242 117.401 45.0058C116.858 44.1911 115.206 43.4258 113.998 43.4011H113.062V36.1677C113.062 32.2177 113.16 28.8356 113.259 28.6628C113.875 27.6999 116.094 27.3296 117.598 27.9468ZM109.635 28.4159L110.473 28.9837L110.547 34.2174L110.596 39.4511H108.772C106.381 39.4511 104.532 40.1177 103.373 41.4014C102.387 42.4877 102.116 43.1789 102.313 44.0183C102.485 44.6602 103.25 45.0305 103.792 44.7096C103.989 44.6108 104.408 44.1171 104.729 43.648C105.567 42.4136 106.676 41.9446 108.821 41.9199H110.621L110.547 47.3264C110.473 53.4983 110.424 53.6464 108.378 54.6833C106.43 55.6954 104.458 55.3251 103.003 53.6711C101.499 51.9677 101.746 50.5111 103.718 49.3014C104.951 48.5361 105.222 48.0424 104.901 47.1536C104.754 46.7833 104.482 46.6105 104.039 46.6105C103.225 46.6105 101.401 47.6474 100.858 48.4127L100.464 48.9558L99.5271 47.9189C98.467 46.7586 98.0233 45.4749 98.0233 43.7468C98.0233 42.068 98.467 41.278 99.3299 41.3768C100.76 41.5496 101.179 40.3152 100.094 39.1796C99.4038 38.439 99.034 36.6368 99.3545 35.4024C99.5024 34.7605 100.883 33.0324 101.228 33.0324C101.327 33.0324 101.672 33.4274 101.992 33.8965C102.707 34.958 104.729 36.0443 105.468 35.7727C106.726 35.3037 106.43 33.7977 104.975 33.0571C103.915 32.514 103.693 32.1684 103.693 30.9587C103.693 28.5146 107.416 26.9346 109.635 28.4159Z" fill="#00CC66"/>
<path d="M60.624 47.0056C55.1757 50.7334 48.1495 57.2756 43.9339 62.534C33.1605 76.038 26.9972 91.8873 25.8878 109.045L25.7399 111.588L24.0882 109.958C22.1899 108.082 21.327 107.761 20.2916 108.576C19.7985 108.971 19.626 109.317 19.626 109.983C19.626 110.773 19.9465 111.168 23.1514 114.402C27.7615 119.093 27.1945 119.093 31.9278 114.402C35.2067 111.119 35.5025 110.773 35.5025 109.958C35.5025 108.823 34.9109 108.23 33.8015 108.23C33.0619 108.23 32.6674 108.477 31.1883 109.934L29.4379 111.662L29.6105 109.07C31.065 86.0611 42.6273 65.0521 61.5608 50.9803C64.3959 48.8572 64.741 48.5116 64.741 47.5734C64.741 46.8822 63.6563 45.87 62.9167 45.87C62.5716 45.87 61.5608 46.3885 60.624 47.0056Z" fill="#575757"/>
<path d="M160.026 46.4878C159.409 47.0803 159.261 47.6975 159.557 48.4381C159.656 48.6603 160.938 49.7712 162.466 50.8822C168.309 55.2518 173.757 60.4362 177.776 65.4971C182.706 71.6443 187.563 80.3342 190.102 87.4689C192.592 94.3813 194.663 104.898 194.663 110.502V111.638L192.937 109.934C191.458 108.478 191.088 108.231 190.349 108.231C189.239 108.231 188.648 108.823 188.648 109.934C188.648 110.749 188.968 111.144 192.198 114.378C196.907 119.118 196.389 119.118 200.9 114.477C202.749 112.551 204.352 110.7 204.426 110.379C204.746 109.095 203.464 107.836 202.207 108.231C201.936 108.33 200.95 109.12 200.062 109.984L198.435 111.539L198.262 108.651C196.857 84.2348 183.766 61.0287 163.576 47.105C161.554 45.7225 160.888 45.5991 160.026 46.4878Z" fill="#575757"/>
<path fill-rule="evenodd" clip-rule="evenodd" d="M81.6996 114.384C84.9765 110.661 89.9485 106.398 96.3332 103.495C92.8628 107.349 90.9445 112.36 90.9513 117.555C90.9513 122.962 92.9883 127.892 96.3332 131.614C89.9503 128.711 84.9765 124.448 81.6996 120.726C80.9194 119.855 80.4878 118.726 80.4878 117.555C80.4878 116.384 80.9194 115.254 81.6996 114.384ZM79.0854 112.067C85.0288 105.315 96.3244 96.7174 111.568 96.5564L111.879 96.5547H112.001C127.463 96.5547 138.915 105.252 144.915 112.067C146.258 113.577 147 115.53 147 117.555C147 119.579 146.258 121.532 144.915 123.043C138.915 129.857 127.463 138.555 112.001 138.555H111.879L111.568 138.553C96.3262 138.392 85.0288 129.794 79.0854 123.043C77.7423 121.532 77 119.579 77 117.555C77 115.53 77.7423 113.577 79.0854 112.067ZM111.928 100.055L111.612 100.056C102.102 100.2 94.4392 107.979 94.4392 117.555C94.4392 127.131 102.104 134.909 111.612 135.053L111.928 135.055C121.537 135.028 129.318 127.202 129.318 117.555C129.318 107.907 121.537 100.081 111.928 100.055ZM132.806 117.555C132.806 123.05 130.701 128.055 127.257 131.798C133.839 128.893 138.954 124.527 142.3 120.726C143.081 119.855 143.512 118.726 143.512 117.555C143.512 116.384 143.081 115.254 142.3 114.384C138.954 110.583 133.839 106.216 127.257 103.311C130.831 107.187 132.813 112.274 132.806 117.555ZM112.001 128.055C113.769 128.055 115.508 127.606 117.056 126.749C118.604 125.892 119.911 124.656 120.854 123.155C121.797 121.655 122.346 119.939 122.449 118.168C122.552 116.397 122.207 114.628 121.444 113.027C121.123 113.362 120.738 113.628 120.312 113.812C119.887 113.995 119.429 114.092 118.966 114.096C118.503 114.1 118.043 114.011 117.615 113.835C117.186 113.659 116.797 113.399 116.469 113.071C116.142 112.742 115.883 112.351 115.707 111.921C115.532 111.491 115.444 111.03 115.448 110.566C115.452 110.101 115.548 109.642 115.731 109.215C115.914 108.788 116.179 108.401 116.512 108.078C115.095 107.4 113.544 107.05 111.974 107.055C110.404 107.06 108.855 107.419 107.442 108.106C106.029 108.793 104.788 109.791 103.812 111.025C102.835 112.259 102.148 113.697 101.801 115.234C101.454 116.771 101.456 118.366 101.807 119.902C102.158 121.437 102.849 122.874 103.828 124.106C104.808 125.337 106.051 126.331 107.466 127.015C108.881 127.699 110.431 128.054 112.001 128.055Z" fill="#00CC66"/>
<path d="M36.6615 121.192C25.8142 122.327 15.953 127.536 9.17339 135.708C4.88376 140.868 2.04866 146.743 0.618788 153.508C-0.145457 157.063 -0.219416 165.185 0.495522 168.937C1.11185 172.245 2.78825 177.306 4.21813 180.17C10.2581 192.242 22.0423 200.685 35.2563 202.413C38.5105 202.833 45.7585 202.561 48.7415 201.92C63.2868 198.76 75.0463 188.169 79.4839 174.22C81.037 169.382 81.3575 167.209 81.3575 161.654C81.3821 155.088 80.6672 151.31 78.3745 145.854C71.4716 129.487 54.3378 119.365 36.6615 121.192ZM45.0682 133.56C47.0651 134.474 48.8155 136.226 49.7523 138.177C50.4672 139.633 50.5412 140.028 50.5412 142.028C50.5412 143.756 50.4179 144.571 49.9742 145.657C49.2099 147.657 47.3609 149.607 45.3147 150.594C43.7863 151.36 43.4904 151.409 41.1977 151.409C39.0282 151.409 38.5598 151.335 37.3272 150.743C36.5383 150.372 35.3549 149.558 34.6646 148.916C30.4243 144.941 30.8188 138.004 35.4782 134.572C37.3765 133.165 38.831 132.745 41.4442 132.82C43.2439 132.894 43.9342 133.017 45.0682 133.56ZM50.0235 155.112C52.1929 155.68 53.7214 156.569 55.6197 158.346C56.5565 159.26 57.3454 160.05 57.3454 160.148C57.3454 160.223 54.3871 160.272 50.7631 160.223C42.8248 160.124 40.8772 160.272 39.8171 160.988C38.3379 162 38.1161 162.593 36.7355 168.863C36.0205 172.171 35.3549 175.109 35.281 175.405C35.1577 175.948 35.0344 175.973 32.4459 175.973C30.8434 175.973 29.734 175.874 29.734 175.726C29.734 175.603 29.9066 174.665 30.1285 173.653C30.5969 171.579 30.4243 171.036 29.3396 171.036C28.5014 171.036 28.1316 171.801 27.5153 174.689C27.0222 177.059 27.0222 177.282 27.392 177.849C27.7618 178.417 27.9097 178.442 30.2517 178.442C32.6677 178.442 32.7417 178.467 33.4566 179.158C34.2209 179.948 34.4181 181.232 33.925 182.491L33.6785 183.132H29.1177C24.3597 183.132 23.3982 182.96 22.2395 181.947C21.5492 181.33 20.8589 179.701 20.8589 178.615C20.8589 178.121 21.5246 174.517 22.3628 170.591C24.1131 162.346 24.6802 160.84 26.9729 158.519C28.526 156.964 30.8927 155.557 32.8157 155.088C34.7386 154.619 48.1992 154.643 50.0235 155.112ZM68.2667 163.383C68.6119 163.654 68.957 164.098 69.0556 164.345C69.1296 164.592 68.3653 168.616 67.3299 173.282C65.5795 181.256 65.4316 181.824 64.7413 182.441C64.3222 182.836 63.6073 183.157 62.9663 183.256C62.3746 183.33 56.5812 183.379 50.0728 183.33C39.2501 183.256 38.1654 183.207 37.549 182.812C37.1792 182.589 36.8341 182.12 36.7355 181.775C36.5629 181.083 39.9404 165.382 40.4827 164.321C41.2223 162.889 41.0498 162.913 54.9048 162.889C67.3299 162.889 67.6504 162.889 68.2667 163.383ZM56.2114 185.502C56.4333 185.7 56.6058 186.046 56.6058 186.218C56.6058 186.391 56.4333 186.737 56.2114 186.934C55.8662 187.28 53.6475 187.329 35.5521 187.329C20.1193 187.329 15.2134 187.255 14.9915 187.033C14.6217 186.663 14.6217 185.774 14.9915 185.404C15.2134 185.182 20.1193 185.107 35.5521 185.107C53.6475 185.107 55.8662 185.157 56.2114 185.502Z" fill="#00CC66"/>
<path d="M53.2523 170.96C52.3154 171.133 51.3786 172.368 51.2554 173.602C51.1321 174.589 51.2061 174.787 51.8717 175.478C53.9425 177.552 57.246 175.034 56.112 172.244C55.8162 171.553 54.5589 170.713 53.9672 170.812C53.8686 170.837 53.5234 170.911 53.2523 170.96Z" fill="#00CC66"/>
<path d="M72.8774 196.71C72.335 197.253 72.2364 198.364 72.7048 198.956C73.3951 199.87 80.8403 203.153 86.3133 204.98C95.1144 207.893 104.877 209.276 114.664 208.955C125.117 208.634 133.277 206.955 142.892 203.203C146.417 201.82 150.732 199.796 151.323 199.253C151.866 198.759 151.89 197.5 151.373 196.734C150.781 195.895 149.82 196.117 144.988 198.24C136.704 201.869 130.689 203.573 121.937 204.783C117.672 205.375 107.071 205.375 102.584 204.783C93.7339 203.622 86.264 201.45 77.0931 197.352C74.258 196.093 73.5923 195.994 72.8774 196.71Z" fill="#575757"/>
<circle cx="183.295" cy="161.653" r="40.7058" fill="#EEEEEE"/>
<circle cx="183.295" cy="161.653" r="40.7058" fill="black" fill-opacity="0.1"/>
<circle cx="183.295" cy="161.653" r="40.7058" fill="#00CC66"/>
<path d="M163.312 153.633C163.53 149.216 164.184 146.46 166.145 144.504C168.101 142.544 170.857 141.889 175.274 141.671M203.277 153.633C203.058 149.216 202.404 146.46 200.444 144.504C198.488 142.544 195.732 141.889 191.315 141.671M191.315 181.636C195.732 181.418 198.488 180.763 200.444 178.803C202.404 176.847 203.058 174.091 203.277 169.674M175.274 181.636C170.857 181.418 168.101 180.763 166.145 178.803C164.184 176.847 163.53 174.091 163.312 169.674M194.863 172.171L194.439 170.385C194.266 169.66 193.904 168.995 193.389 168.456C192.875 167.917 192.226 167.524 191.511 167.318L186.45 165.858V162.773C188.334 161.5 189.605 159.121 189.605 156.395C189.605 152.329 186.778 149.033 183.294 149.033C179.809 149.033 176.984 152.329 176.984 156.395C176.984 159.121 178.252 161.5 180.139 162.773V165.858L175.11 167.331C174.415 167.534 173.785 167.913 173.28 168.431C172.775 168.949 172.412 169.589 172.226 170.288L171.725 172.171" stroke="#191919" stroke-width="4" stroke-linecap="round" stroke-linejoin="round"/>
</svg>
