<svg width="67" height="41" viewBox="0 0 67 41" fill="none" xmlns="http://www.w3.org/2000/svg">
<path d="M65.5268 8.04186C62.5368 5.56483 59.547 3.08745 56.5574 0.610615C54.0601 -1.4584 50.5817 2.22471 53.1006 4.31134C54.755 5.682 56.4098 7.05284 58.0646 8.42369C50.5367 6.91702 42.3611 8.14065 36.0873 12.7494C33.1671 14.8946 30.4164 17.9532 28.5021 21.4236C27.085 21.2249 25.6847 21.165 24.3821 21.2484C15.1606 21.8399 7.06632 27.3793 0.726892 33.7378C-1.57463 36.0462 2.12464 39.505 4.428 37.1947C9.2575 32.3503 15.1803 27.9819 22.0256 26.6324C23.4561 26.3503 24.9809 26.2092 26.501 26.2567C25.713 29.1047 25.5845 32.0633 26.4133 34.9138C27.4381 38.4373 30.3681 41.2903 34.2228 40.9495C37.7537 40.6373 40.6595 37.7453 41.2184 34.2934C42.1499 28.5355 38.3788 24.7307 33.5837 22.7756C34.7351 20.875 36.2014 19.1585 37.8884 17.7354C42.9322 13.481 49.6383 12.2028 56.0036 13.2004C55.1986 14.1462 54.446 15.1476 53.7558 16.2198C51.9886 18.9637 56.4555 21.3518 58.2117 18.6245C59.994 15.8568 62.3187 13.7121 65.1424 12.0383C66.4887 11.2412 66.7755 9.07664 65.5268 8.04186ZM36.1495 31.7725C36.5304 33.3675 35.9826 35.4905 34.1091 35.8451C30.0702 36.6097 30.9336 29.8034 31.5977 27.2693C31.8856 27.3863 32.1706 27.5101 32.4473 27.6495C34.14 28.5014 35.6923 29.8574 36.1495 31.7725Z" fill="#00CC66"/>
</svg>
