<svg width="21" height="84" viewBox="0 0 21 84" fill="none" xmlns="http://www.w3.org/2000/svg">
<path d="M0.0802555 2.92418C-0.637014 0.0649194 3.67027 -1.27596 4.3923 1.60352C10.2924 25.1228 12.4955 49.4864 10.8565 73.7047C12.7786 70.8511 14.7011 67.9978 16.6236 65.1442C18.2483 62.7324 22.253 64.8423 20.6133 67.2762C17.1332 72.4421 13.6531 77.6079 10.173 82.7741C9.31979 84.0405 7.09177 84.6816 6.26021 82.913C4.3172 78.7811 2.3742 74.6491 0.431557 70.5171C-0.809561 67.8776 3.00978 65.4332 4.26702 68.1075C4.98906 69.6431 5.71109 71.179 6.43349 72.7146C7.90429 49.2606 5.79424 25.702 0.0802555 2.92418Z" fill="#00CC66"/>
</svg>
