<svg width="86" height="42" viewBox="0 0 86 42" fill="none" xmlns="http://www.w3.org/2000/svg">
<path d="M0.0711517 27.0962C1.28754 22.0568 2.14001 16.9518 2.5526 11.7841C2.7093 9.81869 4.75127 8.75846 6.36145 10.0586C10.0003 12.9972 14.1638 14.9641 18.7303 15.9935C21.5794 16.6357 20.5787 21.0314 17.7337 20.39C14.7128 19.709 11.8634 18.6406 9.1828 17.2331C17.2071 31.1252 33.9752 43.4213 50.219 34.5652C53.4128 32.8239 56.2279 30.3613 58.0224 27.1776C58.3974 26.5127 58.7392 25.788 59.0323 25.0293C53.6362 25.7543 47.3294 23.8091 46.113 17.8056C45.1834 13.2184 48.7813 9.63937 53.12 9.00418C57.9225 8.30114 62.0544 11.0737 63.6959 15.5435C64.0775 16.5829 64.309 17.6585 64.423 18.7477C72.2246 15.4291 78.6092 9.10577 81.8004 1.24726C82.8933 -1.44351 86.8987 0.669636 85.8162 3.33547C82.0575 12.592 73.7518 20.4659 64.1272 23.7614C63.6232 26.1276 62.6468 28.4084 61.3586 30.3807C55.7699 38.9356 44.9619 42.9507 34.9859 41.8098C22.4452 40.3759 12.2904 31.0926 5.97833 20.6992C5.57238 23.1747 5.08238 25.6377 4.49096 28.0875C3.80958 30.911 -0.610229 29.919 0.0711517 27.0962ZM58.6766 15.5534C57.1136 13.273 52.7848 12.2678 50.9394 14.9072C49.8122 16.5194 50.9895 18.5709 52.3763 19.5831C54.5635 21.1799 57.4741 20.9023 59.9998 20.2594C60.0112 18.5874 59.6359 16.9529 58.6766 15.5534ZM7.15748 16.0845C6.99599 15.9855 6.83077 15.8941 6.67075 15.7925C6.65453 15.9304 6.63504 16.0676 6.61845 16.2055C6.79433 16.1442 6.97497 16.1028 7.15748 16.0845Z" fill="#00CC66"/>
</svg>
