<svg width="455" height="294" viewBox="0 0 455 294" fill="none" xmlns="http://www.w3.org/2000/svg">
<path d="M226.61 38.4497H228.546V126.387H226.61V38.4497Z" fill="#424242"/>
<path d="M226.61 38.4497H228.546V81.0587H226.61V38.4497Z" fill="url(#paint0_linear_110_4867)"/>
<path d="M236.288 38.4497H238.224V126.387H236.288V38.4497Z" fill="#424242"/>
<path d="M245.967 38.4497H247.903V126.387H245.967V38.4497Z" fill="#424242"/>
<path d="M238.225 116.415L236.289 116.415L236.289 95.5641L238.225 95.5641L238.225 116.415Z" fill="url(#paint1_linear_110_4867)"/>
<path d="M245.967 49.3286H247.903V109.163H245.967V49.3286Z" fill="url(#paint2_linear_110_4867)"/>
<path d="M453.576 343.059C453.576 291.364 423.425 241.787 384.4 205.234C345.375 168.681 292.446 148.145 237.257 148.145C182.067 148.145 129.138 168.681 90.1136 205.234C51.0887 241.787 21.4219 291.364 21.4219 343.059L237.257 343.059H453.576Z" fill="#1E1E1E"/>
<path d="M419.216 357.564C419.216 335.182 414.509 313.019 405.365 292.341C396.221 271.663 382.818 252.874 365.921 237.048C349.025 221.221 328.966 208.667 306.889 200.102C284.813 191.537 261.152 187.128 237.256 187.128C213.361 187.128 189.7 191.537 167.624 200.102C145.547 208.667 125.488 221.221 108.592 237.048C91.6951 252.874 78.292 271.663 69.1477 292.341C60.0034 313.019 55.2969 335.182 55.2969 357.564L237.256 357.564H419.216Z" fill="#1E1E1E"/>
<path d="M419.216 357.564C419.216 335.182 414.509 313.019 405.365 292.341C396.221 271.663 382.818 252.874 365.921 237.048C349.025 221.221 328.966 208.667 306.889 200.102C284.813 191.537 261.152 187.128 237.256 187.128C213.361 187.128 189.7 191.537 167.624 200.102C145.547 208.667 125.488 221.221 108.592 237.048C91.6951 252.874 78.292 271.663 69.1477 292.341C60.0034 313.019 55.2969 335.182 55.2969 357.564L237.256 357.564H419.216Z" fill="white" fill-opacity="0.05"/>
<path d="M366.952 346.232C366.952 330.219 363.585 314.363 357.042 299.57C350.5 284.776 340.912 271.334 328.823 260.011C316.735 248.689 302.384 239.707 286.59 233.579C270.796 227.452 253.869 224.298 236.773 224.298C219.678 224.298 202.75 227.452 186.956 233.579C171.162 239.707 156.811 248.689 144.723 260.011C132.635 271.334 123.046 284.776 116.504 299.57C109.962 314.363 106.595 330.219 106.595 346.232L236.773 346.232H366.952Z" fill="#1E1E1E"/>
<path d="M366.952 346.232C366.952 330.219 363.585 314.363 357.042 299.57C350.5 284.776 340.912 271.334 328.823 260.011C316.735 248.689 302.384 239.707 286.59 233.579C270.796 227.452 253.869 224.298 236.773 224.298C219.678 224.298 202.75 227.452 186.956 233.579C171.162 239.707 156.811 248.689 144.723 260.011C132.635 271.334 123.046 284.776 116.504 299.57C109.962 314.363 106.595 330.219 106.595 346.232L236.773 346.232H366.952Z" fill="white" fill-opacity="0.1"/>
<path d="M455 343.084C455 291.39 424.849 241.813 385.824 205.259C346.799 168.706 293.87 148.17 238.681 148.17C238.681 227.042 238.68 170.356 238.68 170.356L360.176 215.685L455 343.084Z" fill="#1E1E1E"/>
<g filter="url(#filter0_d_110_4867)">
<circle cx="237.257" cy="148.145" r="28.1016" fill="#303030"/>
</g>
<g clip-path="url(#clip0_110_4867)">
<path d="M237.256 152.829C240.878 152.829 243.813 149.893 243.813 146.272C243.813 142.651 240.878 139.715 237.256 139.715C233.635 139.715 230.699 142.651 230.699 146.272C230.699 149.893 233.635 152.829 237.256 152.829Z" stroke="#00CC66" stroke-width="2" stroke-linecap="round" stroke-linejoin="round"/>
<path d="M237.256 149.082C238.808 149.082 240.067 147.824 240.067 146.272C240.067 144.72 238.808 143.462 237.256 143.462C235.704 143.462 234.446 144.72 234.446 146.272C234.446 147.824 235.704 149.082 237.256 149.082Z" stroke="#00CC66" stroke-width="2" stroke-linecap="round" stroke-linejoin="round"/>
<path d="M233.509 151.892L231.55 155.158C231.465 155.3 231.419 155.462 231.417 155.628C231.415 155.793 231.457 155.956 231.539 156.101C231.62 156.245 231.739 156.365 231.882 156.448C232.025 156.532 232.187 156.576 232.353 156.576H242.159C242.324 156.576 242.487 156.532 242.63 156.448C242.773 156.365 242.891 156.245 242.973 156.101C243.055 155.956 243.097 155.793 243.094 155.628C243.092 155.462 243.046 155.3 242.961 155.158L241.003 151.892" stroke="#00CC66" stroke-width="2" stroke-linecap="round" stroke-linejoin="round"/>
</g>
<g filter="url(#filter1_d_110_4867)">
<circle cx="154.988" cy="162.65" r="28.1016" fill="#303030"/>
</g>
<g clip-path="url(#clip1_110_4867)">
<path d="M152.178 161.714C154.247 161.714 155.924 160.036 155.924 157.967C155.924 155.898 154.247 154.22 152.178 154.22C150.108 154.22 148.431 155.898 148.431 157.967C148.431 160.036 150.108 161.714 152.178 161.714Z" stroke="#00CC66" stroke-width="2" stroke-linecap="round" stroke-linejoin="round"/>
<path d="M146.558 171.081V169.208C146.558 168.214 146.952 167.261 147.655 166.558C148.358 165.855 149.311 165.461 150.305 165.461H154.051C155.045 165.461 155.998 165.855 156.701 166.558C157.404 167.261 157.798 168.214 157.798 169.208V171.081" stroke="#00CC66" stroke-width="2" stroke-linecap="round" stroke-linejoin="round"/>
<path d="M158.734 154.342C159.54 154.548 160.255 155.017 160.765 155.674C161.275 156.331 161.552 157.14 161.552 157.972C161.552 158.804 161.275 159.612 160.765 160.269C160.255 160.926 159.54 161.395 158.734 161.601" stroke="#00CC66" stroke-width="2" stroke-linecap="round" stroke-linejoin="round"/>
<path d="M163.419 171.081V169.208C163.414 168.381 163.136 167.579 162.627 166.926C162.119 166.274 161.409 165.808 160.608 165.601" stroke="#00CC66" stroke-width="2" stroke-linecap="round" stroke-linejoin="round"/>
</g>
<g filter="url(#filter2_d_110_4867)">
<circle cx="86.2686" cy="199.82" r="28.1016" fill="#303030"/>
</g>
<path d="M94.0603 193.246L86.6001 190.704C86.5101 190.673 86.3894 190.658 86.2686 190.658C86.1479 190.658 86.0271 190.673 85.9371 190.704L78.477 193.246C78.2948 193.308 78.1455 193.518 78.1455 193.712V204.302C78.1455 204.496 78.2706 204.75 78.4221 204.871L85.9898 210.768C86.0667 210.827 86.1654 210.858 86.2664 210.858C86.3674 210.858 86.4684 210.827 86.5431 210.768L94.1107 204.871C94.2622 204.752 94.3874 204.498 94.3874 204.302V193.712C94.3918 193.518 94.2425 193.31 94.0603 193.246ZM92.811 203.881L86.2686 208.979L79.7262 203.881V194.493L86.2686 192.263L92.811 194.493V203.881ZM83.8734 201.126L82.1719 202.827C82.1393 202.86 82.1209 202.905 82.1209 202.951C82.1209 202.998 82.1393 203.042 82.1719 203.075L82.9184 203.822C82.9865 203.89 83.0984 203.89 83.1665 203.822L84.8679 202.12C86.0908 202.891 87.7242 202.744 88.789 201.679C90.025 200.443 90.025 198.441 88.789 197.205C87.553 195.968 85.5507 195.968 84.3147 197.205C83.2499 198.269 83.1028 199.905 83.8734 201.126ZM85.3092 198.199C85.9964 197.512 87.1095 197.512 87.7945 198.199C88.4816 198.886 88.4816 199.999 87.7945 200.684C87.1073 201.371 85.9942 201.371 85.3092 200.684C84.6242 199.997 84.6221 198.886 85.3092 198.199Z" fill="#00CC66"/>
<g filter="url(#filter3_d_110_4867)">
<circle cx="32.1016" cy="260.561" r="28.1016" fill="#303030"/>
</g>
<path d="M24.6068 263.839C24.11 263.839 23.6335 263.642 23.2821 263.29C22.9308 262.939 22.7334 262.463 22.7334 261.966C22.7334 261.469 22.9308 260.992 23.2821 260.641C23.6335 260.29 24.11 260.092 24.6068 260.092M39.5944 263.839C40.0912 263.839 40.5678 263.642 40.9191 263.29C41.2704 262.939 41.4678 262.463 41.4678 261.966C41.4678 261.469 41.2704 260.992 40.9191 260.641C40.5678 260.29 40.0912 260.092 39.5944 260.092" stroke="#00CC66" stroke-width="2" stroke-linecap="round" stroke-linejoin="round"/>
<path d="M27.417 255.877V253.067M36.7842 255.877V253.067" stroke="#00CC66" stroke-width="2" stroke-linejoin="round"/>
<path d="M27.4172 253.067C27.9345 253.067 28.3539 252.647 28.3539 252.13C28.3539 251.613 27.9345 251.193 27.4172 251.193C26.8999 251.193 26.4805 251.613 26.4805 252.13C26.4805 252.647 26.8999 253.067 27.4172 253.067Z" stroke="#00CC66" stroke-width="2" stroke-linejoin="round"/>
<path d="M36.7844 253.067C37.3017 253.067 37.7211 252.647 37.7211 252.13C37.7211 251.613 37.3017 251.193 36.7844 251.193C36.267 251.193 35.8477 251.613 35.8477 252.13C35.8477 252.647 36.267 253.067 36.7844 253.067Z" stroke="#00CC66" stroke-width="2" stroke-linejoin="round"/>
<path d="M33.5057 255.877H30.6955C28.0465 255.877 26.721 255.877 25.8986 256.728C25.0761 257.58 25.0752 258.95 25.0752 261.691C25.0752 264.432 25.0752 265.802 25.8986 266.654C26.721 267.505 28.0465 267.505 30.6955 267.505H31.6557C32.3975 267.505 32.6589 267.658 33.1703 268.215C33.7352 268.83 34.6101 269.651 35.4016 269.843C36.5266 270.114 36.6531 269.739 36.402 268.666C36.3308 268.361 36.1519 267.873 36.3402 267.588C36.446 267.429 36.6212 267.389 36.9725 267.311C37.5261 267.187 37.9832 266.985 38.3026 266.654C39.126 265.802 39.126 264.432 39.126 261.691C39.126 258.95 39.126 257.58 38.3026 256.728C37.4802 255.877 36.1547 255.877 33.5057 255.877Z" stroke="#00CC66" stroke-width="2" stroke-linejoin="round"/>
<path d="M29.2985 261.497H29.29M34.9188 261.497H34.9104" stroke="#00CC66" stroke-width="2" stroke-linecap="round" stroke-linejoin="round"/>
<g filter="url(#filter4_d_110_4867)">
<circle cx="237.257" cy="32.1016" r="28.1016" fill="#00CC66"/>
</g>
<path d="M230.7 40.5319C230.184 40.5319 229.744 40.3486 229.377 39.982C229.01 39.6154 228.827 39.1743 228.826 38.6584V25.5443C228.826 25.0291 229.01 24.5883 229.377 24.2217C229.744 23.8551 230.185 23.6715 230.7 23.6709H243.814C244.329 23.6709 244.77 23.8545 245.137 24.2217C245.504 24.5889 245.688 25.0298 245.687 25.5443V38.6584C245.687 39.1736 245.504 39.6148 245.137 39.982C244.771 40.3492 244.33 40.5325 243.814 40.5319H230.7ZM230.7 28.6589H243.814V25.5443H230.7V28.6589ZM230.7 33.6704H243.814V30.5324H230.7V33.6704ZM230.7 38.6584H243.814V35.5438H230.7V38.6584ZM231.636 28.0267V26.1532H233.51V28.0267H231.636ZM231.636 33.0381V31.1647H233.51V33.0381H231.636ZM231.636 38.0496V36.1761H233.51V38.0496H231.636Z" fill="white"/>
<defs>
<filter id="filter0_d_110_4867" x="205.155" y="116.044" width="64.2031" height="64.2034" filterUnits="userSpaceOnUse" color-interpolation-filters="sRGB">
<feFlood flood-opacity="0" result="BackgroundImageFix"/>
<feColorMatrix in="SourceAlpha" type="matrix" values="0 0 0 0 0 0 0 0 0 0 0 0 0 0 0 0 0 0 127 0" result="hardAlpha"/>
<feOffset/>
<feGaussianBlur stdDeviation="2"/>
<feComposite in2="hardAlpha" operator="out"/>
<feColorMatrix type="matrix" values="0 0 0 0 0 0 0 0 0 0.8 0 0 0 0 0.4 0 0 0 1 0"/>
<feBlend mode="normal" in2="BackgroundImageFix" result="effect1_dropShadow_110_4867"/>
<feBlend mode="normal" in="SourceGraphic" in2="effect1_dropShadow_110_4867" result="shape"/>
</filter>
<filter id="filter1_d_110_4867" x="122.887" y="130.549" width="64.2031" height="64.2034" filterUnits="userSpaceOnUse" color-interpolation-filters="sRGB">
<feFlood flood-opacity="0" result="BackgroundImageFix"/>
<feColorMatrix in="SourceAlpha" type="matrix" values="0 0 0 0 0 0 0 0 0 0 0 0 0 0 0 0 0 0 127 0" result="hardAlpha"/>
<feOffset/>
<feGaussianBlur stdDeviation="2"/>
<feComposite in2="hardAlpha" operator="out"/>
<feColorMatrix type="matrix" values="0 0 0 0 0 0 0 0 0 0.8 0 0 0 0 0.4 0 0 0 1 0"/>
<feBlend mode="normal" in2="BackgroundImageFix" result="effect1_dropShadow_110_4867"/>
<feBlend mode="normal" in="SourceGraphic" in2="effect1_dropShadow_110_4867" result="shape"/>
</filter>
<filter id="filter2_d_110_4867" x="54.167" y="167.719" width="64.2031" height="64.2034" filterUnits="userSpaceOnUse" color-interpolation-filters="sRGB">
<feFlood flood-opacity="0" result="BackgroundImageFix"/>
<feColorMatrix in="SourceAlpha" type="matrix" values="0 0 0 0 0 0 0 0 0 0 0 0 0 0 0 0 0 0 127 0" result="hardAlpha"/>
<feOffset/>
<feGaussianBlur stdDeviation="2"/>
<feComposite in2="hardAlpha" operator="out"/>
<feColorMatrix type="matrix" values="0 0 0 0 0 0 0 0 0 0.8 0 0 0 0 0.4 0 0 0 1 0"/>
<feBlend mode="normal" in2="BackgroundImageFix" result="effect1_dropShadow_110_4867"/>
<feBlend mode="normal" in="SourceGraphic" in2="effect1_dropShadow_110_4867" result="shape"/>
</filter>
<filter id="filter3_d_110_4867" x="0" y="228.459" width="64.2031" height="64.2034" filterUnits="userSpaceOnUse" color-interpolation-filters="sRGB">
<feFlood flood-opacity="0" result="BackgroundImageFix"/>
<feColorMatrix in="SourceAlpha" type="matrix" values="0 0 0 0 0 0 0 0 0 0 0 0 0 0 0 0 0 0 127 0" result="hardAlpha"/>
<feOffset/>
<feGaussianBlur stdDeviation="2"/>
<feComposite in2="hardAlpha" operator="out"/>
<feColorMatrix type="matrix" values="0 0 0 0 0 0 0 0 0 0.8 0 0 0 0 0.4 0 0 0 1 0"/>
<feBlend mode="normal" in2="BackgroundImageFix" result="effect1_dropShadow_110_4867"/>
<feBlend mode="normal" in="SourceGraphic" in2="effect1_dropShadow_110_4867" result="shape"/>
</filter>
<filter id="filter4_d_110_4867" x="205.155" y="0" width="64.2031" height="64.2034" filterUnits="userSpaceOnUse" color-interpolation-filters="sRGB">
<feFlood flood-opacity="0" result="BackgroundImageFix"/>
<feColorMatrix in="SourceAlpha" type="matrix" values="0 0 0 0 0 0 0 0 0 0 0 0 0 0 0 0 0 0 127 0" result="hardAlpha"/>
<feOffset/>
<feGaussianBlur stdDeviation="2"/>
<feComposite in2="hardAlpha" operator="out"/>
<feColorMatrix type="matrix" values="0 0 0 0 0.470044 0 0 0 0 0.596154 0 0 0 0 0.590899 0 0 0 1 0"/>
<feBlend mode="normal" in2="BackgroundImageFix" result="effect1_dropShadow_110_4867"/>
<feBlend mode="normal" in="SourceGraphic" in2="effect1_dropShadow_110_4867" result="shape"/>
</filter>
<linearGradient id="paint0_linear_110_4867" x1="227.578" y1="38.4497" x2="227.578" y2="81.0587" gradientUnits="userSpaceOnUse">
<stop stop-color="#424242"/>
<stop offset="1" stop-color="#00CC66"/>
</linearGradient>
<linearGradient id="paint1_linear_110_4867" x1="237.257" y1="116.415" x2="237.257" y2="95.5641" gradientUnits="userSpaceOnUse">
<stop stop-color="#424242"/>
<stop offset="1" stop-color="#00CC66"/>
</linearGradient>
<linearGradient id="paint2_linear_110_4867" x1="246.935" y1="49.3286" x2="246.935" y2="109.163" gradientUnits="userSpaceOnUse">
<stop stop-color="#424242"/>
<stop offset="0.5" stop-color="#00CC66"/>
<stop offset="1" stop-color="#424242"/>
</linearGradient>
<clipPath id="clip0_110_4867">
<rect width="22.4813" height="22.4813" fill="white" transform="translate(226.016 136.905)"/>
</clipPath>
<clipPath id="clip1_110_4867">
<rect width="22.4813" height="22.4813" fill="white" transform="translate(143.747 151.41)"/>
</clipPath>
</defs>
</svg>
