<svg width="178" height="191" viewBox="0 0 178 191" fill="none" xmlns="http://www.w3.org/2000/svg">
<path d="M113.652 181.788H63.5713L69.0559 150.179H107.601L113.652 181.788Z" fill="#BFBFBF"/>
<path d="M57.5881 182.672L54.3951 188.452C53.7623 189.596 54.5869 191 55.8909 191H121.322C122.598 191 123.422 189.654 122.857 188.509L119.961 182.73C119.673 182.153 119.079 181.787 118.427 181.787H59.0935C58.4702 181.787 57.8949 182.124 57.5977 182.672H57.5881Z" fill="#D7D7D7"/>
<path d="M168.996 34.2928H9.00355C4.03103 34.2928 0 38.3356 0 43.3225V151.102C0 156.089 4.03103 160.132 9.00355 160.132H168.996C173.969 160.132 178 156.089 178 151.102V43.3225C178 38.3356 173.969 34.2928 168.996 34.2928Z" fill="#414141"/>
<path d="M168.996 35.8987H9.00355C4.02715 35.8987 0 39.9471 0 44.9284V134.225H178V44.9284C178 39.9375 173.963 35.8987 168.996 35.8987Z" fill="#575757"/>
<path d="M0 134.235V152.708C0 157.699 4.03674 161.738 9.00355 161.738H168.996C173.973 161.738 178 157.689 178 152.708V134.235H0Z" fill="#414141"/>
<path d="M170.089 43.3995H7.43066V126.561H170.089V43.3995Z" fill="white"/>
<path d="M167.174 46.8615H10.3359V123.08H167.174V46.8615Z" fill="white"/>
<path d="M89.1439 152.525C91.6434 152.525 93.6697 150.493 93.6697 147.986C93.6697 145.48 91.6434 143.447 89.1439 143.447C86.6444 143.447 84.6182 145.48 84.6182 147.986C84.6182 150.493 86.6444 152.525 89.1439 152.525Z" fill="white"/>
<path d="M133.337 57.8047C132.387 58.1028 131.477 58.4875 130.604 58.9491L125.944 56.2469H124.362L125.359 56.8238L121.159 61.0358L123.873 65.7285C123.422 66.5844 123.048 67.4883 122.751 68.4307L117.525 69.8251V76.5949L122.751 77.9893C123.039 78.9317 123.422 79.8356 123.873 80.6915L121.159 85.3842L125.359 89.5962L124.362 90.1731H125.944L127.066 89.5192L130.604 87.471C131.467 87.9325 132.387 88.3172 133.337 88.6153L134.717 93.8177H141.468L142.839 88.6538C143.807 88.3557 144.747 87.971 145.629 87.4998L149.234 89.5962L148.659 90.1731H150.241L155.016 85.3842L152.36 80.7876C152.84 79.8933 153.233 78.9413 153.54 77.9604L158.65 76.5949V69.8251L153.54 68.4596C153.233 67.4691 152.84 66.5267 152.36 65.6324L155.016 61.0358L150.241 56.2469H148.659L149.234 56.8238L145.629 58.9202C144.747 58.449 143.817 58.0643 142.839 57.7662L141.468 52.6023H134.717L133.337 57.8047ZM138.141 65.0362C142.647 65.0362 146.3 68.7 146.3 73.2196C146.3 77.7393 142.647 81.4031 138.141 81.4031C133.634 81.4031 129.981 77.7393 129.981 73.2196C129.981 68.7 133.634 65.0362 138.141 65.0362Z" fill="#585858"/>
<path d="M131.755 57.8047C130.806 58.1028 129.895 58.4875 129.022 58.9491L124.362 56.2469L119.587 61.0358L122.301 65.7285C121.85 66.5844 121.476 67.4883 121.179 68.4307L115.953 69.8251V76.5949L121.179 77.9893C121.466 78.9317 121.85 79.8356 122.301 80.6915L119.587 85.3842L124.362 90.1731L129.022 87.471C129.885 87.9325 130.806 88.3172 131.755 88.6153L133.136 93.8177H139.886L141.257 88.6538C142.225 88.3557 143.165 87.971 144.047 87.4998L148.659 90.1731L153.434 85.3842L150.778 80.7876C151.258 79.8933 151.651 78.9413 151.958 77.9604L157.068 76.5949V69.8251L151.958 68.4596C151.651 67.4691 151.258 66.5267 150.778 65.6324L153.434 61.0358L148.659 56.2469L144.047 58.9202C143.165 58.449 142.235 58.0643 141.257 57.7662L139.886 52.6023H133.136L131.755 57.8047ZM136.568 65.0362C141.075 65.0362 144.728 68.7 144.728 73.2196C144.728 77.7393 141.075 81.4031 136.568 81.4031C132.062 81.4031 128.409 77.7393 128.409 73.2196C128.409 68.7 132.062 65.0362 136.568 65.0362Z" fill="#575757"/>
<path d="M48.6906 74.3832H41.9403L40.5692 79.5471C39.6007 79.8452 38.6611 80.2299 37.7789 80.7011L34.1737 78.6047L34.749 78.0278H33.1669L28.3918 82.8167L31.0478 87.4133C30.5684 88.3076 30.1753 89.2596 29.8685 90.2404L24.7578 91.606V98.3758L29.8685 99.7413C30.1753 100.732 30.5684 101.674 31.0478 102.569L28.3918 107.165L33.1669 111.954H34.749L34.1737 111.377L37.7789 109.281C38.6611 109.752 39.5912 110.137 40.5692 110.435L41.9403 115.599H48.6906L50.0713 110.396C51.0206 110.098 51.9315 109.713 52.804 109.252L56.3422 111.3L57.464 111.954H59.0461L58.0489 111.377L62.2487 107.165L59.5351 102.472C59.9858 101.617 60.3597 100.713 60.657 99.7702L65.8827 98.3758V91.606L60.657 90.2116C60.3693 89.2692 59.9858 88.3653 59.5351 87.5094L62.2487 82.8167L58.0489 78.6047L59.0461 78.0278H57.464L52.804 80.7299C51.9411 80.2684 51.0206 79.8837 50.0713 79.5856L48.6906 74.3832ZM53.4273 95.0005C53.4273 99.5202 49.7741 103.184 45.2675 103.184C40.7609 103.184 37.1077 99.5202 37.1077 95.0005C37.1077 90.4809 40.7609 86.817 45.2675 86.817C49.7741 86.817 53.4273 90.4809 53.4273 95.0005Z" fill="#585858"/>
<path d="M50.2726 74.3832H43.5223L42.1512 79.5471C41.1828 79.8452 40.2431 80.2299 39.361 80.7011L34.7489 78.0278L29.9739 82.8167L32.6299 87.4133C32.1504 88.3076 31.7573 89.2596 31.4505 90.2404L26.3398 91.606V98.3758L31.4505 99.7413C31.7573 100.732 32.1504 101.674 32.6299 102.569L29.9739 107.165L34.7489 111.954L39.361 109.281C40.2431 109.752 41.1732 110.137 42.1512 110.435L43.5223 115.599H50.2726L51.6534 110.396C52.6026 110.098 53.5135 109.713 54.3861 109.252L59.046 111.954L63.8211 107.165L61.1076 102.472C61.5582 101.617 61.9322 100.713 62.2294 99.7702L67.4551 98.3758V91.606L62.2294 90.2116C61.9418 89.2692 61.5582 88.3653 61.1076 87.5094L63.8211 82.8167L59.046 78.0278L54.3861 80.7299C53.5231 80.2684 52.6026 79.8837 51.6534 79.5856L50.2726 74.3832ZM55.0093 95.0005C55.0093 99.5202 51.3561 103.184 46.8495 103.184C42.343 103.184 38.6898 99.5202 38.6898 95.0005C38.6898 90.4809 42.343 86.817 46.8495 86.817C51.3561 86.817 55.0093 90.4809 55.0093 95.0005Z" fill="#575757"/>
<path opacity="0.25" d="M90.7255 120.224C137.776 100.722 145.85 59.0452 146.176 34.2928H32.1113C32.4469 59.0452 40.5108 100.722 87.5613 120.224C88.5681 120.638 89.7091 120.638 90.7159 120.224H90.7255Z" fill="#585858"/>
<path d="M134.909 17.176C110.324 29.3021 97.4951 12.5986 92.1831 2.10723C90.8024 -0.623797 87.2451 -0.71996 85.7493 1.93414C79.9291 12.262 66.3902 28.8405 43.3204 17.224C40.9904 16.0509 38.3152 17.7914 38.0563 20.609C36.3208 39.1973 35.5538 96.3373 87.7149 120.224C88.6258 120.638 89.6614 120.638 90.5723 120.224C142.839 96.2892 141.966 38.9569 140.221 20.4936C139.953 17.6664 137.249 16.022 134.9 17.176H134.909Z" fill="#FCFFFE"/>
<path d="M129.895 26.0421C108.666 36.1104 96.3543 22.2437 91.771 13.5314C90.5821 11.2619 87.5042 11.185 86.2193 13.3871C81.195 21.9648 67.7807 35.7354 47.8559 26.0806C45.8424 25.1094 43.3206 26.5422 43.311 28.8886C43.2439 44.5535 45.315 91.5483 87.9165 111.598C88.6931 111.964 89.6136 111.993 90.3807 111.598C132.733 90.1636 134.766 43.6977 134.488 28.7924C134.44 26.4364 131.927 25.0805 129.895 26.0421Z" fill="#008E47"/>
<path d="M125.292 32.4852C106.451 40.8802 95.5202 29.3214 91.4451 22.0515C90.3904 20.1667 87.6576 20.0994 86.5166 21.9361C82.058 29.0906 70.1491 40.5629 52.468 32.514C50.6846 31.7063 48.4409 32.8987 48.4313 34.8508C48.3642 47.9097 50.2148 87.0865 88.0316 103.8C88.722 104.107 89.537 104.127 90.2178 103.8C127.814 85.9325 129.617 47.1885 129.367 34.7642C129.329 32.7929 127.095 31.6678 125.292 32.466V32.4852Z" fill="#00CC66" fill-opacity="0.8"/>
<path d="M100.535 64.2092C99.5095 64.2092 98.6753 63.3726 98.6753 62.3437V52.035C98.6753 46.6884 94.3413 42.3322 89.0005 42.3322C83.6598 42.3322 79.3258 46.6788 79.3258 52.035V62.3437C79.3258 63.3726 78.4916 64.2092 77.4656 64.2092C76.4397 64.2092 75.6055 63.3726 75.6055 62.3437V52.035C75.6055 44.6305 81.6174 38.6011 89.0005 38.6011C96.3836 38.6011 102.396 44.6305 102.396 52.035V62.3437C102.396 63.3726 101.561 64.2092 100.535 64.2092Z" fill="white"/>
<path d="M104.764 54.9486H73.2368C71.4416 54.9486 69.9863 56.4081 69.9863 58.2085V82.7782C69.9863 84.5786 71.4416 86.0381 73.2368 86.0381H104.764C106.559 86.0381 108.014 84.5786 108.014 82.7782V58.2085C108.014 56.4081 106.559 54.9486 104.764 54.9486Z" fill="#353535"/>
<path d="M100.459 59.199H77.5424C76.2397 59.199 75.1836 60.2581 75.1836 61.5646V79.4316C75.1836 80.7381 76.2397 81.7973 77.5424 81.7973H100.459C101.761 81.7973 102.818 80.7381 102.818 79.4316V61.5646C102.818 60.2581 101.761 59.199 100.459 59.199Z" fill="#585858"/>
<path d="M94.1009 66.8633C94.1009 69.6809 91.8188 71.9696 89.0094 71.9696C86.2 71.9696 83.918 69.6809 83.918 66.8633C83.918 64.0458 86.2 61.7571 89.0094 61.7571C91.8188 61.7571 94.1009 64.0458 94.1009 66.8633Z" fill="#C2C2C2"/>
<path d="M88.9995 79.2394C87.8777 79.2394 86.9668 78.3162 86.9668 77.2008V69.2769C86.9668 68.1518 87.8873 67.2383 88.9995 67.2383C90.1214 67.2383 91.0323 68.1614 91.0323 69.2769V77.2008C91.0323 78.3259 90.1118 79.2394 88.9995 79.2394Z" fill="#C2C2C2"/>
<path d="M88.9999 70.4981C90.9592 70.4981 92.5476 68.9051 92.5476 66.9401C92.5476 64.9751 90.9592 63.3821 88.9999 63.3821C87.0405 63.3821 85.4521 64.9751 85.4521 66.9401C85.4521 68.9051 87.0405 70.4981 88.9999 70.4981Z" fill="white"/>
<path d="M88.9998 77.9699C88.5012 77.9699 88.0889 77.5564 88.0889 77.0563V69.3825C88.0889 68.8825 88.5012 68.469 88.9998 68.469C89.4984 68.469 89.9107 68.8825 89.9107 69.3825V77.0563C89.9107 77.5564 89.4984 77.9699 88.9998 77.9699Z" fill="white"/>
</svg>
