<svg width="267" height="172" viewBox="0 0 267 172" fill="none" xmlns="http://www.w3.org/2000/svg">
<g clip-path="url(#clip0_110_4618)">
<path d="M60.5827 153.644H45.5713V164.169H60.5827V153.644Z" fill="#414141"/>
<path d="M220.147 153.644H205.136V164.169H220.147V153.644Z" fill="#414141"/>
<path d="M253.916 0H11.8032C9.38507 0 7.4248 1.95749 7.4248 4.37218V152.384C7.4248 154.798 9.38507 156.756 11.8032 156.756H253.916C256.335 156.756 258.295 154.798 258.295 152.384V4.37218C258.295 1.95749 256.335 0 253.916 0Z" fill="#575757"/>
<path d="M263.397 161.239H3.60303C1.61313 161.239 0 162.85 0 164.837V168.404C0 170.391 1.61313 172.002 3.60303 172.002H263.397C265.387 172.002 267 170.391 267 168.404V164.837C267 162.85 265.387 161.239 263.397 161.239Z" fill="#575757"/>
<path d="M252.051 2.41882H13.6682C11.5582 2.41882 9.84766 4.12691 9.84766 6.23395V142.456C9.84766 144.563 11.5582 146.271 13.6682 146.271H252.051C254.161 146.271 255.872 144.563 255.872 142.456V6.23395C255.872 4.12691 254.161 2.41882 252.051 2.41882Z" fill="#737373"/>
<path d="M252.103 6.18225H13.6162V142.507H252.103V6.18225Z" fill="#DEF1F7"/>
<path d="M244.735 135.15V13.5406L20.985 13.5406V135.15H244.735Z" fill="white"/>
<rect x="65.3691" y="38.631" width="140.866" height="82.7807" fill="#E4E4E4"/>
<path d="M85.0347 107.568H71.4834C71.1576 107.568 70.8936 107.832 70.8936 108.158V117.842C70.8936 118.168 71.1576 118.432 71.4834 118.432H85.0347C85.3605 118.432 85.6246 118.168 85.6246 117.842V108.158C85.6246 107.832 85.3605 107.568 85.0347 107.568Z" fill="#585858"/>
<path d="M104.37 107.568H90.8184C90.4926 107.568 90.2285 107.832 90.2285 108.158V117.842C90.2285 118.168 90.4926 118.432 90.8184 118.432H104.37C104.695 118.432 104.96 118.168 104.96 117.842V108.158C104.96 107.832 104.695 107.568 104.37 107.568Z" fill="#585858"/>
<path d="M123.704 107.568H110.152C109.827 107.568 109.562 107.832 109.562 108.158V117.842C109.562 118.168 109.827 118.432 110.152 118.432H123.704C124.029 118.432 124.294 118.168 124.294 117.842V108.158C124.294 107.832 124.029 107.568 123.704 107.568Z" fill="#585858"/>
<path d="M143.039 107.568H129.487C129.162 107.568 128.897 107.832 128.897 108.158V117.842C128.897 118.168 129.162 118.432 129.487 118.432H143.039C143.364 118.432 143.628 118.168 143.628 117.842V108.158C143.628 107.832 143.364 107.568 143.039 107.568Z" fill="#585858"/>
<path d="M162.373 107.568H148.821C148.496 107.568 148.231 107.832 148.231 108.158V117.842C148.231 118.168 148.496 118.432 148.821 118.432H162.373C162.698 118.432 162.962 118.168 162.962 117.842V108.158C162.962 107.832 162.698 107.568 162.373 107.568Z" fill="#585858"/>
<path d="M181.708 107.568H168.156C167.83 107.568 167.566 107.832 167.566 108.158V117.842C167.566 118.168 167.83 118.432 168.156 118.432H181.708C182.033 118.432 182.297 118.168 182.297 117.842V108.158C182.297 107.832 182.033 107.568 181.708 107.568Z" fill="#585858"/>
<path d="M201.042 107.568H187.49C187.164 107.568 186.9 107.832 186.9 108.158V117.842C186.9 118.168 187.164 118.432 187.49 118.432H201.042C201.367 118.432 201.631 118.168 201.631 117.842V108.158C201.631 107.832 201.367 107.568 201.042 107.568Z" fill="#585858"/>
<g style="mix-blend-mode:multiply">
<path d="M93.2792 46.6874H28.3877C26.8269 46.6874 25.5615 47.9509 25.5615 49.5096V95.8363C25.5615 97.395 26.8269 98.6585 28.3877 98.6585H93.2792C94.8401 98.6585 96.1054 97.395 96.1054 95.8363V49.5096C96.1054 47.9509 94.8401 46.6874 93.2792 46.6874Z" fill="#BFBFBF"/>
</g>
<path d="M96.2602 43.23H31.3657C29.8057 43.23 28.541 44.4929 28.541 46.0507V92.3804C28.541 93.9383 29.8057 95.2011 31.3657 95.2011H96.2602C97.8203 95.2011 99.0849 93.9383 99.0849 92.3804V46.0507C99.0849 44.4929 97.8203 43.23 96.2602 43.23Z" fill="#00CC66"/>
<path d="M72.083 63.5521C74.5462 63.5521 76.2964 63.5547 77.6243 63.733C78.9224 63.9073 79.6716 64.2354 80.2179 64.7818C80.847 65.4108 81.1221 65.8991 81.2732 66.7684C81.4437 67.7487 81.4476 69.145 81.4476 71.625C81.4476 71.882 81.5497 72.1284 81.7313 72.3101C81.913 72.4917 82.1594 72.5938 82.4163 72.5938C82.6733 72.5938 82.9197 72.4917 83.1014 72.3101C83.283 72.1284 83.3851 71.882 83.3851 71.625V71.501C83.3851 69.176 83.3851 67.6028 83.181 66.4351C82.955 65.137 82.4719 64.2961 81.5884 63.4126C80.6209 62.4439 79.3951 62.0163 77.8813 61.8122C76.4088 61.6146 74.5294 61.6146 72.1553 61.6146H72.083C71.8261 61.6146 71.5797 61.7167 71.398 61.8984C71.2163 62.08 71.1143 62.3264 71.1143 62.5834C71.1143 62.8403 71.2163 63.0867 71.398 63.2684C71.5797 63.4501 71.8261 63.5521 72.083 63.5521ZM56.583 78.4063C56.8399 78.4063 57.0863 78.5084 57.268 78.69C57.4497 78.8717 57.5518 79.1181 57.5518 79.375C57.5518 81.855 57.5556 83.2513 57.7261 84.2317C57.8785 85.101 58.1524 85.5893 58.7814 86.2183C59.3278 86.7647 60.077 87.0928 61.3764 87.2671C62.7042 87.4454 64.4531 87.448 66.9163 87.448C67.1733 87.448 67.4197 87.55 67.6014 87.7317C67.783 87.9134 67.8851 88.1598 67.8851 88.4167C67.8851 88.6736 67.783 88.92 67.6014 89.1017C67.4197 89.2834 67.1733 89.3855 66.9163 89.3855H66.844C64.4699 89.3855 62.5893 89.3855 61.1181 89.1878C59.6042 88.9838 58.3784 88.5549 57.411 87.5887C56.5275 86.704 56.0444 85.8631 55.8183 84.565C55.6143 83.3973 55.6143 81.8228 55.6143 79.499V79.375C55.6143 79.1181 55.7163 78.8717 55.898 78.69C56.0797 78.5084 56.3261 78.4063 56.583 78.4063ZM82.4163 78.4063C82.6733 78.4063 82.9197 78.5084 83.1014 78.69C83.283 78.8717 83.3851 79.1181 83.3851 79.375V79.499C83.3851 81.824 83.3851 83.3973 83.181 84.565C82.955 85.8631 82.4719 86.704 81.5884 87.5875C80.6209 88.5562 79.3951 88.9838 77.8813 89.1878C76.4088 89.3855 74.5294 89.3855 72.1553 89.3855H72.083C71.8261 89.3855 71.5797 89.2834 71.398 89.1017C71.2163 88.92 71.1143 88.6736 71.1143 88.4167C71.1143 88.1598 71.2163 87.9134 71.398 87.7317C71.5797 87.55 71.8261 87.448 72.083 87.448C74.5462 87.448 76.2964 87.4454 77.6243 87.2671C78.9224 87.0928 79.6716 86.7647 80.2179 86.2183C80.847 85.5893 81.1221 85.101 81.2732 84.2317C81.4437 83.2513 81.4476 81.855 81.4476 79.375C81.4476 79.1181 81.5497 78.8717 81.7313 78.69C81.913 78.5084 82.1594 78.4063 82.4163 78.4063ZM66.844 61.6146H66.9163C67.1733 61.6146 67.4197 61.7167 67.6014 61.8984C67.783 62.08 67.8851 62.3264 67.8851 62.5834C67.8851 62.8403 67.783 63.0867 67.6014 63.2684C67.4197 63.4501 67.1733 63.5521 66.9163 63.5521C64.4531 63.5521 62.7042 63.5547 61.3751 63.733C60.077 63.9073 59.3278 64.2354 58.7814 64.7818C58.1524 65.4108 57.8773 65.8991 57.7261 66.7684C57.5556 67.7487 57.5518 69.145 57.5518 71.625C57.5518 71.882 57.4497 72.1284 57.268 72.3101C57.0863 72.4917 56.8399 72.5938 56.583 72.5938C56.3261 72.5938 56.0797 72.4917 55.898 72.3101C55.7163 72.1284 55.6143 71.882 55.6143 71.625V71.501C55.6143 69.176 55.6143 67.6028 55.8183 66.4351C56.0444 65.137 56.5275 64.2961 57.411 63.4126C58.3784 62.4439 59.6042 62.0163 61.1181 61.8122C62.5905 61.6146 64.4699 61.6146 66.844 61.6146ZM69.4997 73.8855C69.0715 73.8855 68.6608 74.0556 68.358 74.3584C68.0552 74.6612 67.8851 75.0718 67.8851 75.5C67.8851 75.9283 68.0552 76.3389 68.358 76.6417C68.6608 76.9445 69.0715 77.1146 69.4997 77.1146C69.9279 77.1146 70.3386 76.9445 70.6414 76.6417C70.9442 76.3389 71.1143 75.9283 71.1143 75.5C71.1143 75.0718 70.9442 74.6612 70.6414 74.3584C70.3386 74.0556 69.9279 73.8855 69.4997 73.8855Z" fill="white"/>
<path fill-rule="evenodd" clip-rule="evenodd" d="M61.6102 78.1608C60.8416 77.2695 60.458 76.8239 60.458 75.5C60.458 74.176 60.8416 73.7304 61.6102 72.8391C63.1447 71.0592 65.7177 69.0416 69.4997 69.0416C73.2817 69.0416 75.8547 71.0592 77.3892 72.8391C78.1577 73.7304 78.5413 74.176 78.5413 75.5C78.5413 76.8239 78.1577 77.2695 77.3892 78.1608C75.8547 79.9407 73.2817 81.9583 69.4997 81.9583C65.7177 81.9583 63.1447 79.9407 61.6102 78.1608ZM65.9476 75.5C65.9476 74.5579 66.3218 73.6544 66.988 72.9883C67.6541 72.3221 68.5576 71.9479 69.4997 71.9479C70.4417 71.9479 71.3452 72.3221 72.0114 72.9883C72.6775 73.6544 73.0518 74.5579 73.0518 75.5C73.0518 76.442 72.6775 77.3455 72.0114 78.0117C71.3452 78.6778 70.4417 79.052 69.4997 79.052C68.5576 79.052 67.6541 78.6778 66.988 78.0117C66.3218 77.3455 65.9476 76.442 65.9476 75.5Z" fill="white"/>
<g style="mix-blend-mode:multiply">
<path d="M236.189 86.5822H158.269C157.263 86.5822 156.447 87.3965 156.447 88.4011V127.811C156.447 128.816 157.263 129.63 158.269 129.63H236.189C237.195 129.63 238.01 128.816 238.01 127.811V88.4011C238.01 87.3965 237.195 86.5822 236.189 86.5822Z" fill="#BFBFBF"/>
</g>
<path d="M239.225 84.156H161.305C160.299 84.156 159.483 84.9704 159.483 85.9749V125.385C159.483 126.39 160.299 127.204 161.305 127.204H239.225C240.231 127.204 241.047 126.39 241.047 125.385V85.9749C241.047 84.9704 240.231 84.156 239.225 84.156Z" fill="#F5F5F5"/>
<path d="M210.715 112.125H203.35V121.323H210.715V112.125Z" fill="#00CC66"/>
<path d="M221.763 97.4084H214.397V121.323H221.763V97.4084Z" fill="#00CC66"/>
<path d="M233.732 89.1304H226.366V121.323H233.732V89.1304Z" fill="#00CC66"/>
<path d="M190.85 103.542C191.183 104.592 191.365 105.71 191.365 106.869C191.365 112.947 186.432 117.873 180.346 117.873C174.26 117.873 169.326 112.947 169.326 106.869C169.326 102.963 171.371 99.5406 174.445 97.5872L172.332 94.1681C168.115 96.8277 165.311 101.521 165.311 106.869C165.311 115.162 172.042 121.883 180.346 121.883C188.65 121.883 195.381 115.162 195.381 106.869C195.381 105.278 195.131 103.746 194.672 102.307L190.85 103.543V103.542Z" fill="#00E6C8"/>
<path d="M180.346 91.8556C177.398 91.8556 174.652 92.7052 172.332 94.1695L174.445 97.5886C176.153 96.5041 178.174 95.8672 180.346 95.8672C185.27 95.8672 189.437 99.0943 190.85 103.543L194.672 102.307C192.738 96.2455 187.056 91.8556 180.346 91.8556Z" fill="#00CC66"/>
<path d="M191.749 93.1397C189.059 90.9455 185.921 89.6703 182.711 89.2684L182.13 93.583C184.565 93.8815 186.949 94.8463 188.991 96.5116C193.643 100.307 195.09 106.567 192.991 111.862L197.052 113.445C199.821 106.438 197.903 98.162 191.749 93.1397Z" fill="#585858"/>
<g style="mix-blend-mode:multiply">
<path d="M123.372 61.7514V90.2836C123.372 91.8321 125.1 92.7556 126.389 91.8956L146.68 78.3875C147.799 77.6428 147.839 76.0175 146.76 75.2181L126.469 60.194C125.188 59.2454 123.372 60.1585 123.372 61.7514Z" fill="#BFBFBF"/>
</g>
<path d="M124.905 58.969V87.5012C124.905 89.0497 126.634 89.9732 127.922 89.1133L148.213 75.6052C149.332 74.8605 149.372 73.2351 148.293 72.4357L128.002 57.4116C126.721 56.463 124.905 57.3762 124.905 58.969Z" fill="#FDFEFF"/>
<path d="M201.303 30.858H70.6148C67.6791 30.858 65.2998 33.234 65.2998 36.1655V40.2245H206.617V36.1655C206.617 33.234 204.238 30.858 201.302 30.858H201.303Z" fill="#00CC66"/>
<path d="M244.77 13.5731H21.1045V22.2466H244.77V13.5731Z" fill="#00CC66"/>
<path d="M228.549 18.4476H223.707V19.5218H228.549V18.4476Z" fill="white"/>
<path d="M242.643 19.2824L239.22 15.8638L238.459 16.6233L241.883 20.042L242.643 19.2824Z" fill="white"/>
<path d="M239.219 20.0419L242.643 16.6233L241.882 15.8637L238.458 19.2823L239.219 20.0419Z" fill="white"/>
<path d="M231.093 15.6344V20.042H235.507V15.6344H231.093ZM234.651 19.188H231.948V16.4884H234.651V19.188Z" fill="white"/>
</g>
<defs>
<clipPath id="clip0_110_4618">
<rect width="267" height="172" fill="white"/>
</clipPath>
</defs>
</svg>
